ply
format ascii 1.0
comment Generated by the CGAL library
element vertex 52
property double x
property double y
property double z
element face 36
property list uchar int vertex_indices
end_header
-0.277905 -0.112664 0.217551
-0.259128 -0.131442 0.225328
-0.259128 -0.131442 -0.225328
-0.277905 -0.112664 -0.217551
-0.277905 -0.112664 -0.217551
-0.259128 -0.131442 -0.225328
-0.259128 0.0375547 -0.394325
-0.277905 0.0641099 -0.394325
-0.259128 -0.131442 0.225328
-0.277905 -0.112664 0.217551
-0.259128 0.0375547 0.394325
-0.277905 0.0641099 0.394325
-0.277905 -0.112664 -0.217551
-0.277905 -0.112664 0.217551
-0.277905 0.131442 0.394325
-0.277905 0.131442 -0.394325
-0.277905 0.0641099 -0.394325
-0.277905 0.0641099 0.394325
0.277905 0.131442 -0.394325
0.259128 0.0375547 -0.394325
-0.259128 0.0375547 -0.394325
0.277905 0.0641099 -0.394325
-0.259128 -0.131442 -0.225328
-0.259128 0.0375547 -0.394325
0.259128 0.0375547 -0.394325
0.259128 -0.131442 -0.225328
-0.259128 0.0375547 0.394325
-0.259128 -0.131442 0.225328
0.259128 -0.131442 0.225328
0.259128 0.0375547 0.394325
0.277905 -0.112664 0.217551
0.259128 0.0375547 0.394325
0.259128 -0.131442 0.225328
0.277905 0.0641099 0.394325
0.259128 -0.131442 0.225328
0.277905 -0.112664 0.217551
0.259128 -0.131442 -0.225328
0.277905 -0.112664 -0.217551
0.277905 -0.112664 -0.217551
0.259128 -0.131442 -0.225328
0.259128 0.0375547 -0.394325
0.277905 0.0641099 -0.394325
0.277905 0.131442 0.394325
-0.259128 -0.131442 0.225328
-0.259128 -0.131442 -0.225328
0.259128 -0.131442 -0.225328
0.259128 -0.131442 0.225328
0.259128 0.0375547 0.394325
0.277905 0.0641099 0.394325
-0.259128 0.0375547 0.394325
0.277905 -0.112664 0.217551
0.277905 -0.112664 -0.217551
3 0 1 2
3 3 0 2
3 4 5 6
3 7 4 6
3 8 9 10
3 9 11 10
3 12 13 14
3 12 15 16
3 12 14 15
3 13 17 14
3 19 15 18
3 20 15 19
3 19 18 21
3 20 16 15
3 22 23 24
3 25 22 24
3 26 27 28
3 26 28 29
3 30 31 32
3 30 33 31
3 34 35 36
3 35 37 36
3 38 39 40
3 41 38 40
3 14 42 15
3 42 18 15
3 43 44 45
3 46 43 45
3 47 48 42
3 47 14 49
3 49 14 17
3 47 42 14
3 42 48 50
3 51 42 50
3 21 18 51
3 18 42 51
