ply
format ascii 1.0
comment Generated by the CGAL library
element vertex 16
property double x
property double y
property double z
element face 28
property list uchar int vertex_indices
end_header
0.372066 -0.291022 0.16393
0.372066 0.291022 -0.16393
0.372066 0.291022 0.16393
0.372066 -0.291022 -0.16393
-0.372066 0.291022 0.16393
-0.372066 0.291022 -0.16393
-0.372066 -0.291022 0.16393
-0.372066 -0.291022 -0.16393
0.36654 0.285496 0.16393
0.36654 -0.285496 0.16393
-0.36654 0.285496 0.16393
-0.36654 -0.285496 0.16393
0.36654 0.285496 -0.154352
0.36654 -0.285496 -0.154352
-0.36654 0.285496 -0.154352
-0.36654 -0.285496 -0.154352
3 0 1 2
3 0 3 1
3 4 2 1
3 4 1 5
3 6 4 5
3 6 5 7
3 3 0 6
3 7 3 6
3 5 1 3
3 5 3 7
3 8 2 4
3 0 9 6
3 0 2 8
3 10 8 4
3 9 0 8
3 6 11 4
3 4 11 10
3 6 9 11
3 12 9 8
3 12 13 9
3 12 10 14
3 12 8 10
3 10 11 14
3 11 15 14
3 15 11 13
3 11 9 13
3 13 12 14
3 13 14 15
