ply
format ascii 1.0
comment Generated by the CGAL library
element vertex 49
property double x
property double y
property double z
element face 84
property list uchar int vertex_indices
end_header
0.315352 0.155004 -0.355706
0.315352 0.0609324 -0.355706
0.315352 0.155004 0.0959418
0.315352 0.0609324 0.0959418
-0.315352 0.155004 0.0959418
-0.315352 0.155004 -0.355706
-0.315352 0.0609324 -0.355706
-0.315352 0.0609324 0.0959418
-0.207384 0.0609324 0.0959418
-0.207384 0.0609324 -0.149391
-0.207384 -0.0336732 -0.149391
-0.207384 0.128279 0.355706
-0.207384 -0.0336732 0.355706
-0.207384 0.128279 0.0959418
-0.0801742 -0.0336732 0.355706
-0.0801742 -0.0336732 -0.149391
-0.0801742 -0.155004 -0.149391
-0.0801742 -0.155004 0.355706
0.0801742 -0.155004 0.355706
0.0801742 -0.155004 -0.149391
0.0801742 -0.0336732 0.355706
0.0801742 -0.0336732 -0.149391
0.207384 -0.0336732 0.0959418
0.207384 -0.0336732 0.355706
0.207384 -0.0336732 -0.149391
0.207384 0.0609324 0.0959418
0.207384 0.0609324 -0.149391
0.207748 0.0609324 0.0959418
0.207384 -0.0336732 0.355706
0.208008 0.128279 0.355706
0.207384 -0.0336732 0.0959418
0.208008 0.128279 0.0959418
0.208008 0.128279 0.0959418
0.208008 0.128279 0.355706
0.207748 0.0609324 0.0959418
-0.207384 0.0919331 -0.149391
-0.288627 0.128813 -0.149391
-0.288627 0.0919331 -0.149391
0.207384 0.0919331 -0.149391
0.288627 0.0919331 -0.149391
0.288627 0.128813 -0.149391
0.207384 0.0609324 -0.355706
0.207384 0.0919331 -0.355706
-0.207384 0.0609324 -0.355706
-0.207384 0.0919331 -0.355706
0.288627 0.0919331 -0.355706
0.288627 0.128813 -0.355706
-0.288627 0.0919331 -0.355706
-0.288627 0.128813 -0.355706
3 0 1 2
3 1 3 2
3 0 2 4
3 5 0 4
3 6 5 4
3 7 6 4
3 10 9 8
3 12 8 11
3 10 8 12
3 11 8 13
3 10 12 14
3 15 10 14
3 14 16 15
3 14 17 16
3 16 17 18
3 19 16 18
3 19 18 20
3 21 19 20
3 22 20 23
3 24 21 22
3 22 21 20
3 24 22 25
3 26 24 25
3 27 28 29
3 27 30 28
3 31 27 29
3 11 13 32
3 33 11 32
3 33 20 11
3 23 20 33
3 14 12 11
3 14 20 18
3 17 14 18
3 14 11 20
3 34 25 22
3 9 15 35
3 36 37 35
3 15 19 21
3 21 24 26
3 10 15 9
3 16 19 15
3 15 21 35
3 38 21 26
3 35 21 38
3 35 38 36
3 38 39 40
3 38 40 36
3 41 38 26
3 41 42 38
3 43 9 35
3 44 43 35
3 45 40 39
3 45 46 40
3 42 39 38
3 42 45 39
3 47 44 35
3 37 47 35
3 37 36 47
3 36 48 47
3 46 36 40
3 46 48 36
3 3 1 26
3 3 26 34
3 34 26 25
3 1 41 26
3 9 7 8
3 43 6 9
3 9 6 7
3 32 2 3
3 34 32 3
3 13 2 32
3 8 7 13
3 7 4 13
3 4 2 13
3 42 41 45
3 46 45 0
3 47 43 44
3 45 1 0
3 6 47 5
3 6 43 47
3 47 48 5
3 48 46 5
3 5 46 0
3 45 41 1
