ply
format ascii 1.0
comment Generated by the CGAL library
element vertex 16
property double x
property double y
property double z
element face 32
property list uchar int vertex_indices
end_header
0.294619 -0.160701 -0.294619
0.334795 -0.160701 -0.334795
0.294619 -0.160701 0.294619
-0.334795 -0.160701 0.334795
-0.294619 -0.160701 -0.294619
-0.294619 -0.160701 0.294619
-0.334795 -0.160701 -0.334795
0.334795 -0.160701 0.334795
0.294619 0.160701 -0.294619
0.334795 0.160701 -0.334795
0.294619 0.160701 0.294619
-0.334795 0.160701 0.334795
-0.294619 0.160701 -0.294619
-0.294619 0.160701 0.294619
-0.334795 0.160701 -0.334795
0.334795 0.160701 0.334795
3 0 1 2
3 3 4 5
3 0 4 6
3 3 5 2
3 7 3 2
3 6 4 3
3 1 0 6
3 7 2 1
3 10 9 8
3 13 12 11
3 14 12 8
3 10 13 11
3 10 11 15
3 11 12 14
3 14 8 9
3 9 10 15
3 11 7 15
3 11 3 7
3 6 3 11
3 6 11 14
3 9 1 14
3 1 6 14
3 0 2 10
3 8 0 10
3 10 2 13
3 2 5 13
3 13 5 4
3 13 4 12
3 12 0 8
3 12 4 0
3 15 7 1
3 15 1 9
