ply
format ascii 1.0
comment Generated by the CGAL library
element vertex 16
property double x
property double y
property double z
element face 28
property list uchar int vertex_indices
end_header
-0.284216 0.29275 -0.288995
0.284216 0.29275 -0.288995
-0.284216 -0.29275 -0.288995
0.284216 -0.29275 -0.288995
0.284216 -0.29275 0.288995
0.284216 0.29275 0.288995
-0.225666 -0.29275 0.230445
-0.225666 -0.29275 -0.230445
0.225666 -0.29275 -0.230445
0.225666 -0.29275 0.230445
-0.284216 -0.29275 0.288995
-0.284216 0.29275 0.288995
0.225666 0.2342 -0.230445
-0.225666 0.2342 -0.230445
0.225666 0.2342 0.230445
-0.225666 0.2342 0.230445
3 0 1 2
3 1 3 2
3 3 1 4
3 1 5 4
3 2 7 6
3 2 3 8
3 10 9 4
3 8 3 4
3 2 8 7
3 8 4 9
3 2 6 10
3 10 6 9
3 5 0 11
3 5 1 0
3 10 0 2
3 10 11 0
3 10 4 5
3 10 5 11
3 13 7 12
3 7 8 12
3 12 8 9
3 12 9 14
3 14 6 15
3 14 9 6
3 6 7 13
3 6 13 15
3 15 13 14
3 13 12 14
