ply
format ascii 1.0
comment Generated by the CGAL library
element vertex 60
property double x
property double y
property double z
element face 36
property list uchar int vertex_indices
end_header
-0.183718 0.0596937 -0.252866
-0.297262 0.0965864 -0.0596936
-0.183718 0.252866 0.0596936
-1.35872e-09 0.193173 -0.252866
3.18091e-09 0.31256 -0.0596936
1.35872e-09 0.193173 -0.252866
-3.18091e-09 0.31256 -0.0596936
0.183718 0.252866 0.0596936
0.183718 0.0596937 -0.252866
0.297262 0.0965864 -0.0596936
-0.183718 0.0596937 -0.252866
-0.297262 0.0965864 -0.0596936
-0.183718 -0.252866 -0.0596937
-0.113544 -0.15628 -0.252866
-0.297262 -0.0965864 0.0596937
-0.183718 0.0596937 -0.252866
0 0.193173 -0.252866
0.183718 0.0596937 -0.252866
-0.113544 -0.15628 -0.252866
0.113544 -0.15628 -0.252866
0.297262 0.0965864 -0.0596937
0.183718 0.252866 0.0596937
0.297262 -0.0965864 0.0596936
0.183718 -0.0596937 0.252866
0.113544 0.15628 0.252866
-0.183718 0.252866 0.0596937
0 0.31256 -0.0596937
0.183718 0.252866 0.0596937
-0.113544 0.15628 0.252866
0.113544 0.15628 0.252866
-0.183718 -0.0596937 0.252866
-0.183718 0.252866 0.0596937
-0.113544 0.15628 0.252866
-0.297262 -0.0965864 0.0596936
-0.297262 0.0965864 -0.0596937
-0.297262 -0.0965864 0.0596936
-0.183718 -0.0596937 0.252866
-0.183718 -0.252866 -0.0596936
-1.35872e-09 -0.193173 0.252866
3.18091e-09 -0.31256 0.0596936
0.183718 -0.252866 -0.0596936
1.35872e-09 -0.193173 0.252866
0.183718 -0.0596937 0.252866
-3.18091e-09 -0.31256 0.0596936
0.297262 -0.0965864 0.0596936
-0.183718 -0.0596937 0.252866
-0.113544 0.15628 0.252866
0.113544 0.15628 0.252866
0 -0.193173 0.252866
0.183718 -0.0596937 0.252866
0.297262 -0.0965864 0.0596937
0.183718 -0.252866 -0.0596937
0.297262 0.0965864 -0.0596936
0.183718 0.0596937 -0.252866
0.113544 -0.15628 -0.252866
0.113544 -0.15628 -0.252866
-0.183718 -0.252866 -0.0596937
-0.113544 -0.15628 -0.252866
0.183718 -0.252866 -0.0596937
0 -0.31256 0.0596937
3 0 1 2
3 0 2 3
3 3 2 4
3 5 6 7
3 5 7 8
3 8 7 9
3 10 11 12
3 10 12 13
3 11 14 12
3 15 16 17
3 18 15 19
3 19 15 17
3 20 21 22
3 21 23 22
3 21 24 23
3 25 26 27
3 28 25 29
3 29 25 27
3 30 31 32
3 33 34 31
3 30 33 31
3 35 36 37
3 36 38 37
3 37 38 39
3 40 41 42
3 40 43 41
3 44 40 42
3 45 46 47
3 48 45 49
3 49 45 47
3 50 51 52
3 51 53 52
3 51 54 53
3 55 56 57
3 58 59 56
3 55 58 56
