ply
format ascii 1.0
comment Generated by the CGAL library
element vertex 48
property double x
property double y
property double z
element face 92
property list uchar int vertex_indices
end_header
-0.382433 -0.292449 -0.134976
-0.382433 0.292449 -0.134976
-0.382433 -0.292449 -0.104982
-0.382433 0.292449 -0.104982
0.382433 -0.292449 -0.134976
0.382433 -0.292449 -0.104982
-0.0974829 -0.247457 -0.104982
-0.352438 0.158377 -0.104982
-0.322444 0.158377 -0.104982
-0.352438 -0.0365892 -0.104982
-0.352438 -0.186563 -0.104982
-0.352438 0.0683925 -0.104982
-0.0974829 0.00749869 -0.104982
-0.322444 0.0683925 -0.104982
-0.322444 -0.0365892 -0.104982
-0.322444 -0.186563 -0.104982
-0.0974829 -0.0224961 -0.104982
-0.0974829 0.232459 -0.104982
0.322444 0.224961 -0.104982
0.322444 -0.239958 -0.104982
0.202465 0.224961 -0.104982
0.187467 0.232459 -0.104982
0.187467 0.00749869 -0.104982
0.382433 0.292449 -0.104982
0.187467 -0.247457 -0.104982
0.202465 -0.239958 -0.104982
0.187467 -0.0224961 -0.104982
0.382433 0.292449 -0.134976
-0.352438 0.158377 0.0449921
-0.352438 0.0683925 0.0449921
-0.322444 0.0683925 0.0449921
-0.322444 0.158377 0.0449921
-0.352438 -0.186563 0.0449921
-0.352438 -0.0365892 0.0449921
-0.322444 -0.186563 0.0449921
-0.322444 -0.0365892 0.0449921
-0.0974829 0.232459 0.134976
-0.0974829 0.00749869 0.134976
0.187467 0.00749869 0.134976
0.187467 0.232459 0.134976
-0.0974829 -0.0224961 0.134976
-0.0974829 -0.247457 0.134976
0.187467 -0.247457 0.134976
0.187467 -0.0224961 0.134976
0.202465 -0.239958 0.0599895
0.202465 0.224961 0.0599895
0.322444 -0.239958 0.0599895
0.322444 0.224961 0.0599895
3 0 1 2
3 1 3 2
3 4 0 2
3 5 4 2
3 5 2 6
3 8 7 3
3 9 2 3
3 2 9 10
3 11 3 7
3 14 13 12
3 13 8 12
3 2 10 15
3 15 14 16
3 3 11 9
3 15 16 6
3 14 11 13
3 9 11 14
3 8 3 17
3 19 18 5
3 22 21 20
3 17 3 23
3 8 17 12
3 17 23 21
3 5 6 24
3 6 2 15
3 14 12 16
3 24 26 25
3 26 12 22
3 16 12 26
3 24 25 5
3 25 19 5
3 18 23 5
3 20 21 23
3 20 23 18
3 26 20 25
3 22 20 26
3 1 0 4
3 27 1 4
3 3 1 27
3 3 27 23
3 27 4 5
3 23 27 5
3 29 11 28
3 11 7 28
3 13 11 30
3 11 29 30
3 31 13 30
3 31 8 13
3 31 7 8
3 31 28 7
3 29 28 31
3 30 29 31
3 33 32 10
3 9 33 10
3 10 32 34
3 10 34 15
3 15 34 35
3 15 35 14
3 35 33 9
3 14 35 9
3 32 33 35
3 34 32 35
3 37 12 36
3 12 17 36
3 37 22 12
3 37 38 22
3 21 22 39
3 22 38 39
3 36 21 39
3 36 17 21
3 38 37 36
3 39 38 36
3 40 6 16
3 40 41 6
3 42 24 41
3 24 6 41
3 26 24 43
3 24 42 43
3 40 26 43
3 40 16 26
3 42 41 40
3 43 42 40
3 44 20 45
3 44 25 20
3 19 25 46
3 25 44 46
3 47 18 46
3 18 19 46
3 47 20 18
3 47 45 20
3 44 45 47
3 46 44 47
