ply
format ascii 1.0
comment Generated by the CGAL library
element vertex 12
property double x
property double y
property double z
element face 20
property list uchar int vertex_indices
end_header
-0.313836 -0.25153 -0.297052
-0.313836 0.25153 0.297052
-0.313836 0.25153 -0.297052
-0.313836 -0.25153 0.297052
0.313836 -0.25153 -0.297052
0.313836 -0.25153 0.297052
0.313836 -0.117898 0.297052
0.313836 -0.117898 -0.297052
-0.184483 -0.117898 -0.297052
-0.184483 -0.117898 0.297052
-0.184483 0.25153 0.297052
-0.184483 0.25153 -0.297052
3 0 1 2
3 0 3 1
3 3 0 4
3 5 3 4
3 6 5 4
3 7 6 4
3 6 7 8
3 9 6 8
3 10 9 8
3 11 10 8
3 2 1 10
3 2 10 11
3 1 3 9
3 1 9 10
3 9 3 5
3 9 5 6
3 4 8 7
3 8 2 11
3 0 2 8
3 0 8 4
