ply
format ascii 1.0
comment Generated by the CGAL library
element vertex 28
property double x
property double y
property double z
element face 34
property list uchar int vertex_indices
end_header
-0.324785 -0.363759 0.110427
-0.324785 -0.363759 -0.110427
-0.324785 0.363759 -0.110427
-0.324785 0.363759 0.110427
0.311794 -0.363759 0.110427
0.324785 0.363759 0.110427
0.324785 -0.363759 0.110427
0.311794 0.363759 0.110427
-0.311794 0.363759 0.110427
-0.311794 -0.363759 0.110427
-0.301581 0.363759 -0.0844441
-0.311794 -0.363759 0.110427
-0.301581 -0.363759 -0.0844441
-0.311794 0.363759 0.110427
0.301581 0.363759 -0.0844441
0.324785 0.363759 -0.110427
-0.301581 0.363759 -0.0844441
0.324785 -0.363759 -0.110427
0.301581 0.363759 -0.0844441
0.311794 -0.363759 0.110427
0.301581 -0.363759 -0.0844441
0.311794 0.363759 0.110427
-0.301581 -0.363759 -0.0844441
0.301581 -0.363759 -0.0844441
0.311794 -0.363759 -0.110427
0.311794 0.363759 -0.110427
-0.311794 -0.363759 -0.110427
-0.311794 0.363759 -0.110427
3 0 1 2
3 0 2 3
3 4 5 6
3 4 7 5
3 0 3 8
3 9 0 8
3 10 11 12
3 10 13 11
3 14 2 15
3 16 3 2
3 5 7 14
3 5 14 15
3 8 3 16
3 14 16 2
3 15 2 1
3 15 1 17
3 18 19 20
3 18 21 19
3 22 16 14
3 23 22 14
3 17 6 15
3 6 5 15
3 22 1 0
3 9 22 0
3 23 1 22
3 4 6 23
3 6 17 23
3 17 1 23
3 4 24 25
3 7 4 25
3 27 26 9
3 27 9 8
3 24 26 25
3 26 27 25
