ply
format ascii 1.0
comment Generated by the CGAL library
element vertex 32
property double x
property double y
property double z
element face 60
property list uchar int vertex_indices
end_header
0.41487 -0.145204 0.186691
0.41487 -0.145204 -0.145204
0.352639 -0.145204 -0.145204
0.352639 -0.145204 0.186691
0.352639 -0.207435 -0.145204
0.352639 -0.207435 0.186691
-0.352639 -0.207435 0.186691
-0.41487 -0.145204 0.186691
-0.41487 -0.207435 0.186691
-0.352639 -0.145204 0.186691
-0.352639 -0.145204 -0.145204
-0.352639 -0.207435 -0.145204
0.352639 0.145204 -0.145204
0.41487 0.145204 -0.145204
-0.41487 0.145204 -0.145204
-0.41487 -0.145204 -0.145204
-0.352639 0.145204 -0.145204
-0.352639 0.207435 -0.145204
0.352639 0.207435 -0.145204
-0.352639 0.207435 0.186691
-0.352639 0.145204 0.186691
0.41487 -0.207435 0.186691
0.41487 -0.207435 -0.186691
-0.41487 -0.207435 -0.186691
0.41487 0.207435 0.186691
0.352639 0.207435 0.186691
0.41487 0.145204 0.186691
0.352639 0.145204 0.186691
0.41487 0.207435 -0.186691
-0.41487 0.207435 0.186691
-0.41487 0.145204 0.186691
-0.41487 0.207435 -0.186691
3 0 1 2
3 3 0 2
3 3 2 4
3 3 4 5
3 6 7 8
3 6 9 7
3 2 10 4
3 4 10 11
3 12 1 13
3 10 14 15
3 10 2 16
3 14 10 16
3 16 2 12
3 17 16 12
3 17 12 18
3 2 1 12
3 16 17 19
3 16 19 20
3 5 4 21
3 4 22 21
3 4 23 22
3 23 11 8
3 8 11 6
3 23 4 11
3 24 25 26
3 25 27 26
3 27 25 12
3 25 18 12
3 27 12 26
3 12 13 26
3 13 22 28
3 24 26 13
3 28 24 13
3 1 22 13
3 1 0 21
3 22 1 21
3 20 19 29
3 20 29 30
3 31 22 23
3 31 28 22
3 14 16 20
3 14 20 30
3 23 8 15
3 8 7 15
3 14 30 29
3 23 14 31
3 14 29 31
3 23 15 14
3 19 17 29
3 29 17 31
3 31 17 18
3 31 18 28
3 28 18 24
3 25 24 18
3 10 15 9
3 15 7 9
3 6 11 9
3 11 10 9
3 21 3 5
3 21 0 3
