ply
format ascii 1.0
comment Generated by the CGAL library
element vertex 16
property double x
property double y
property double z
element face 28
property list uchar int vertex_indices
end_header
0.288675 -0.288675 0.288675
0.288675 0.288675 -0.288675
0.288675 0.288675 0.288675
0.288675 -0.288675 -0.288675
-0.288675 0.288675 0.288675
-0.288675 0.288675 -0.288675
-0.288675 -0.288675 0.288675
-0.288675 -0.288675 -0.288675
0.240563 0.240563 0.288675
-0.240563 -0.240563 0.288675
-0.240563 0.240563 0.288675
0.240563 -0.240563 0.288675
0.240563 -0.240563 -0.240563
0.240563 0.240563 -0.240563
-0.240563 0.240563 -0.240563
-0.240563 -0.240563 -0.240563
3 0 1 2
3 0 3 1
3 4 2 1
3 4 1 5
3 6 4 5
3 6 5 7
3 3 0 6
3 7 3 6
3 5 1 3
3 5 3 7
3 8 2 4
3 9 10 4
3 0 11 6
3 0 2 8
3 10 8 4
3 11 0 8
3 6 9 4
3 11 9 6
3 12 13 14
3 15 12 14
3 9 11 15
3 11 12 15
3 14 10 15
3 10 9 15
3 14 8 10
3 14 13 8
3 12 8 13
3 12 11 8
