ply
format ascii 1.0
comment Generated by the CGAL library
element vertex 16
property double x
property double y
property double z
element face 28
property list uchar int vertex_indices
end_header
0.272567 0.202678 0.366918
0.272567 -0.202678 -0.366918
0.272567 -0.202678 0.366918
0.272567 0.202678 -0.366918
-0.272567 0.202678 -0.366918
-0.272567 -0.202678 -0.366918
-0.272567 -0.202678 0.366918
-0.272567 0.202678 0.366918
0.237623 0.167734 -0.331973
-0.237623 0.167734 -0.331973
0.237623 -0.167734 -0.331973
-0.237623 -0.167734 -0.331973
-0.237623 0.167734 0.366918
0.237623 0.167734 0.366918
-0.237623 -0.167734 0.366918
0.237623 -0.167734 0.366918
3 0 1 2
3 0 3 1
3 1 3 4
3 1 4 5
3 2 1 5
3 2 5 6
3 4 3 0
3 7 4 0
3 6 5 7
3 5 4 7
3 10 9 8
3 10 11 9
3 7 13 12
3 6 7 14
3 7 12 14
3 7 0 13
3 6 15 2
3 14 15 6
3 13 0 2
3 13 2 15
3 15 11 10
3 15 14 11
3 15 10 13
3 10 8 13
3 8 9 13
3 9 12 13
3 12 11 14
3 12 9 11
