ply
format ascii 1.0
comment Generated by the CGAL library
element vertex 32
property double x
property double y
property double z
element face 28
property list uchar int vertex_indices
end_header
0.0780848 0.443539 0.16657
0.0722308 -0.449393 0.160716
0.0722308 0.449393 0.160716
0.0780848 -0.443539 0.16657
0.142479 -0.449393 0.160716
0.136625 -0.443539 0.16657
0.136625 0.443539 0.16657
0.142479 0.449393 0.160716
0.0722308 0.449393 0.160716
0.0780848 0.443539 0.16657
0.136625 0.443539 0.16657
0.142479 0.449393 0.160716
0.136625 -0.443539 0.16657
0.0722308 -0.449393 0.160716
0.142479 -0.449393 0.160716
0.0780848 -0.443539 0.16657
0.0722308 0.449393 -0.112807
0.142479 0.449393 0.160716
0.142479 0.449393 -0.16657
0.0722308 0.449393 0.160716
-0.142479 0.449393 -0.16657
-0.142479 0.449393 -0.112807
0.0722308 -0.449393 -0.112807
0.142479 -0.449393 0.160716
0.142479 -0.449393 -0.16657
0.0722308 -0.449393 0.160716
-0.142479 -0.449393 -0.16657
-0.142479 -0.449393 -0.112807
0.0780848 -0.443539 0.16657
0.0780848 0.443539 0.16657
0.136625 0.443539 0.16657
0.136625 -0.443539 0.16657
3 0 1 2
3 0 3 1
3 4 5 6
3 7 4 6
3 8 9 10
3 8 10 11
3 12 13 14
3 12 15 13
3 16 17 18
3 16 19 17
3 20 21 16
3 20 16 18
3 24 23 22
3 23 25 22
3 22 27 26
3 24 22 26
3 16 25 19
3 16 22 25
3 28 29 30
3 31 28 30
3 17 23 18
3 23 24 18
3 27 16 21
3 27 22 16
3 27 21 20
3 27 20 26
3 20 18 26
3 18 24 26
