ply
format ascii 1.0
comment Generated by the CGAL library
element vertex 52
property double x
property double y
property double z
element face 100
property list uchar int vertex_indices
end_header
-0.0416613 -0.0402726 0.111097
-0.0416613 -0.0402726 -0.0277742
-0.0972097 -0.0402726 -0.0277742
-0.0972097 -0.0402726 0.111097
-0.0416613 -0.0958209 0.111097
-0.0972097 -0.0958209 0.111097
-0.0972097 -0.0958209 -0.0277742
0.0972097 -0.0402726 -0.0277742
0.0416613 -0.0402726 -0.0277742
0.0972097 -0.0402726 0.111097
0.0416613 -0.0402726 0.111097
-0.378423 -0.151369 -0.204835
0.0416613 -0.142152 -0.204835
-0.0416613 -0.142152 -0.204835
0.378423 -0.0958209 -0.204835
0.378423 -0.151369 -0.204835
-0.0416613 -0.0958209 -0.204835
-0.378423 -0.0958209 -0.204835
0.0416613 -0.0958209 -0.204835
0.0972097 -0.0958209 -0.0277742
-0.0416613 -0.0958209 -0.0277742
-0.378423 -0.0958209 0.288157
-0.0416613 -0.0958209 0.114569
0.0416613 -0.0958209 0.114569
0.378423 -0.0958209 0.288157
0.0416613 -0.0958209 -0.0277742
0.0972097 -0.0958209 0.111097
0.0416613 -0.0958209 0.111097
0.378423 -0.151369 0.288157
-0.378423 -0.151369 0.288157
0.350649 -0.151369 0.260383
0.350649 -0.151369 -0.17706
-0.350649 -0.151369 -0.17706
-0.350649 -0.151369 0.260383
-0.236081 -0.151369 -0.288157
-0.236081 0.154147 -0.288157
-0.236081 -0.151369 -0.260383
-0.236081 0.154147 -0.260383
0.236081 -0.151369 -0.288157
0.236081 -0.151369 -0.260383
0.236081 0.154147 -0.288157
0.236081 0.154147 -0.260383
0.0416613 -0.142152 -0.260383
-0.0416613 -0.0310554 -0.260383
0.0416613 -0.0310554 -0.260383
-0.0416613 -0.142152 -0.260383
0.0416613 -0.0310554 0.114569
-0.0416613 -0.0310554 0.114569
-0.350649 -0.154147 -0.17706
-0.350649 -0.154147 0.260383
0.350649 -0.154147 0.260383
0.350649 -0.154147 -0.17706
3 0 1 2
3 0 2 3
3 4 3 5
3 4 0 3
3 3 2 6
3 3 6 5
3 7 8 9
3 8 10 9
3 13 12 11
3 15 12 14
3 13 17 16
3 13 11 17
3 12 15 11
3 18 14 12
3 19 14 18
3 6 20 16
3 6 16 17
3 6 21 5
3 17 21 6
3 22 4 5
3 21 24 23
3 25 19 18
3 19 24 14
3 26 24 19
3 23 24 26
3 21 23 22
3 23 26 27
3 21 22 5
3 15 14 24
3 15 24 28
3 24 21 28
3 21 29 28
3 15 30 31
3 28 30 15
3 11 31 32
3 11 15 31
3 33 29 32
3 32 29 11
3 33 30 29
3 29 30 28
3 36 35 34
3 36 37 35
3 36 34 38
3 36 38 39
3 39 38 40
3 39 40 41
3 40 35 37
3 41 40 37
3 38 34 35
3 38 35 40
3 42 36 39
3 37 43 44
3 45 43 36
3 37 36 43
3 41 44 39
3 41 37 44
3 44 42 39
3 42 45 36
3 27 10 23
3 23 10 46
3 42 18 12
3 46 10 8
3 46 8 44
3 8 18 44
3 18 42 44
3 25 18 8
3 44 43 46
3 43 47 46
3 22 0 4
3 47 0 22
3 13 16 45
3 1 0 47
3 43 1 47
3 43 16 1
3 43 45 16
3 1 16 20
3 12 13 42
3 13 45 42
3 22 23 47
3 23 46 47
3 6 2 20
3 2 1 20
3 9 26 19
3 9 19 7
3 32 48 33
3 48 49 33
3 27 26 10
3 26 9 10
3 19 8 7
3 19 25 8
3 21 11 29
3 21 17 11
3 50 33 49
3 50 30 33
3 49 48 51
3 49 51 50
3 51 31 30
3 51 30 50
3 51 48 32
3 31 51 32
