ply
format ascii 1.0
comment Generated by the CGAL library
element vertex 63
property double x
property double y
property double z
element face 68
property list uchar int vertex_indices
end_header
-0.363817 -0.133026 -0.283799
-0.363817 -0.133262 -0.304011
-0.363817 -0.133262 -0.283799
-0.363817 0.133262 -0.304011
-0.363817 0.12946 0.302351
-0.363817 0.133262 0.302351
-0.363817 -0.0486471 0.282139
-0.363817 -0.129495 0.0193821
-0.363817 -0.0486471 0.302351
-0.363817 0.11305 0.0193821
-0.363817 0.11305 0.282139
-0.363817 0.129449 0.304011
-0.363817 -0.129495 -0.000829936
-0.363817 0.11305 -0.000829936
-0.363817 0.11305 -0.283799
0.363817 -0.129495 0.0193821
0.363817 -0.0486471 0.302351
0.363817 -0.0486471 0.282139
0.363817 0.11305 0.282139
0.363817 0.11305 0.0193821
0.363817 -0.133026 -0.283799
0.363817 -0.129495 -0.000829936
0.363817 0.11305 -0.283799
0.363817 0.11305 -0.000829936
0.363817 -0.129495 0.0193821
0.363817 -0.0486471 0.302351
0.373923 -0.0486471 0.302351
0.373923 -0.129495 0.0193821
0.363817 -0.133026 -0.283799
0.363817 -0.129495 0.0193821
0.373923 -0.129495 0.0193821
0.373923 -0.133262 -0.304011
0.363817 -0.133262 -0.304011
0.373923 -0.129495 0.0193821
0.373923 -0.0486471 0.302351
0.373923 0.133262 0.302351
0.373923 -0.133262 -0.304011
0.373923 0.133262 -0.304011
-0.373923 -0.133262 -0.304011
-0.373923 -0.129495 0.0193821
-0.373923 0.133262 -0.304011
-0.373923 0.129449 0.304011
-0.373923 -0.0486471 0.302351
-0.363817 -0.133026 -0.283799
-0.363817 -0.133262 -0.304011
-0.373923 -0.133262 -0.304011
-0.373923 -0.129495 0.0193821
-0.363817 -0.129495 0.0193821
-0.373923 -0.129495 0.0193821
-0.373923 -0.0486471 0.302351
-0.363817 -0.0486471 0.302351
-0.363817 -0.129495 0.0193821
-0.373923 0.129449 0.304011
-0.363817 0.129449 0.304011
-0.373923 0.133262 -0.304011
-0.373923 0.129449 0.304011
-0.363817 0.12946 0.302351
-0.363817 0.133262 -0.304011
-0.363817 0.129449 0.304011
0.363817 -0.133262 -0.304011
0.363817 -0.133262 -0.283799
-0.363817 -0.0486471 0.302351
-0.373923 -0.0486471 0.302351
3 0 1 2
3 3 4 5
3 8 7 6
3 6 7 9
3 6 9 10
3 4 11 8
3 12 7 0
3 12 14 13
3 0 14 12
3 15 16 17
3 18 19 17
3 17 19 15
3 20 21 22
3 22 21 23
3 20 15 21
3 24 25 26
3 27 24 26
3 28 29 30
3 28 31 32
3 28 30 31
3 35 34 33
3 37 33 36
3 35 33 37
3 38 39 40
3 39 41 40
3 39 42 41
3 43 44 45
3 43 46 47
3 43 45 46
3 48 49 50
3 51 48 50
3 62 52 53
3 61 62 53
3 54 55 56
3 54 56 57
3 55 58 56
3 60 59 20
3 22 23 13
3 22 13 14
3 37 3 5
3 35 37 5
3 13 23 21
3 13 21 12
3 21 15 7
3 21 7 12
3 15 19 9
3 7 15 9
3 17 16 8
3 6 17 8
3 5 4 35
3 4 16 35
3 35 16 34
3 4 8 16
3 10 18 17
3 10 17 6
3 2 1 59
3 2 59 60
3 0 2 60
3 22 14 20
3 20 0 60
3 14 0 20
3 40 1 38
3 40 3 1
3 37 36 59
3 37 59 3
3 3 59 1
3 19 18 10
3 19 10 9
