ply
format ascii 1.0
comment Generated by the CGAL library
element vertex 50
property double x
property double y
property double z
element face 90
property list uchar int vertex_indices
end_header
-0.323235 0.0745029 -0.290776
-0.323235 -0.0269307 -0.290776
-0.323235 0.0745029 -0.0202867
-0.323235 -0.0269307 0.290776
-0.323235 0.196223 0.290776
-0.323235 0.196223 -0.290776
-0.323235 0.182699 -0.290776
-0.323235 0.182699 -0.0202867
-0.33676 0.0745029 -0.0202867
-0.33676 -0.0404551 -0.304301
-0.33676 -0.0404551 0.304301
-0.33676 0.182699 -0.0202867
-0.33676 0.209748 0.304301
-0.33676 0.209748 -0.304301
-0.33676 0.0745029 -0.290776
-0.33676 0.182699 -0.290776
0.177171 -0.0269307 -0.290776
0.323235 0.196223 -0.290776
0.323235 0.182699 -0.290776
0.323235 -0.209748 -0.290776
0.323235 0.047454 -0.290776
0.177171 -0.209748 -0.290776
0.323235 0.182699 -0.304301
0.323235 0.047454 -0.304301
0.33676 0.182699 -0.0338112
0.33676 0.047454 -0.0338112
0.323235 0.047454 -0.0338112
0.323235 0.182699 -0.0338112
0.33676 0.047454 -0.304301
0.33676 0.182699 -0.304301
0.163646 -0.209748 -0.304301
0.33676 -0.209748 0.304301
0.33676 -0.209748 -0.304301
0.163646 -0.209748 0.304301
0.177171 -0.209748 0.290776
0.323235 -0.209748 0.290776
0.177171 -0.0269307 0.290776
0.323235 0.196223 0.290776
0.163646 -0.0404551 0.304301
0.163646 -0.0404551 -0.304301
0.33676 0.209748 -0.304301
0.33676 0.209748 0.304301
0.323235 0.182699 -0.290776
0.323235 0.182699 -0.290776
0.323235 0.047454 -0.290776
0.323235 0.047454 -0.290776
0.323235 0.047454 -0.0338112
0.323235 0.047454 -0.0338112
0.323235 0.182699 -0.0338112
0.323235 0.182699 -0.0338112
3 0 1 2
3 3 4 2
3 5 6 7
3 4 5 7
3 2 4 7
3 1 3 2
3 10 9 8
3 12 8 11
3 12 11 13
3 8 9 14
3 10 8 12
3 14 13 15
3 14 9 13
3 15 13 11
3 14 0 2
3 8 14 2
3 7 6 15
3 11 7 15
3 8 2 7
3 11 8 7
3 14 15 0
3 15 6 0
3 5 16 6
3 16 0 6
3 16 5 17
3 16 17 18
3 1 0 16
3 16 20 19
3 21 16 19
3 16 18 20
3 22 44 42
3 22 23 44
3 26 25 24
3 26 24 27
3 28 44 23
3 28 25 44
3 25 26 44
3 22 42 29
3 42 24 29
3 42 27 24
3 21 19 30
3 19 31 32
3 33 34 30
3 33 31 35
3 34 21 30
3 35 31 19
3 30 19 32
3 34 33 35
3 16 21 36
3 21 34 36
3 36 3 1
3 36 1 16
3 4 17 5
3 4 37 17
3 36 35 37
3 36 34 35
3 4 3 36
3 4 36 37
3 38 33 30
3 39 38 30
3 38 39 9
3 38 9 10
3 13 40 12
3 40 41 12
3 38 31 33
3 38 10 12
3 38 12 41
3 38 41 31
3 39 30 32
3 23 39 32
3 28 23 32
3 9 39 13
3 22 39 23
3 40 13 22
3 40 22 29
3 13 39 22
3 48 18 17
3 43 45 49
3 37 35 46
3 45 47 49
3 46 19 20
3 35 19 46
3 48 17 37
3 48 37 46
3 32 31 25
3 32 25 28
3 25 31 41
3 24 40 29
3 24 41 40
3 24 25 41
