ply
format ascii 1.0
comment Generated by the CGAL library
element vertex 40
property double x
property double y
property double z
element face 44
property list uchar int vertex_indices
end_header
0.393447 0.267936 -0.128101
0.393447 0.267936 -0.0566515
0.393447 -0.267936 -0.0566515
0.393447 -0.267936 -0.128101
-0.393447 0.267936 -0.153002
-0.321997 0.267936 -0.153002
-0.393447 -0.267936 -0.153002
-0.321997 -0.267936 -0.153002
0.0830184 -0.267936 -0.128101
0.0830184 0.267936 -0.128101
0.0830184 0.267936 -0.128101
0.0830184 -0.267936 -0.128101
-0.104758 0.267936 -0.0644482
-0.104758 -0.267936 -0.0644482
-0.177758 -0.267936 0.0815524
-0.104758 0.267936 -0.0644482
-0.177758 0.267936 0.0815524
-0.104758 -0.267936 -0.0644482
-0.177758 0.267936 0.0815524
-0.177758 -0.267936 0.0815524
-0.321997 -0.267936 0.0815524
-0.321997 0.267936 0.0815524
0.0947993 -0.267936 -0.0566515
0.0947993 0.267936 -0.0566515
-0.0539918 0.267936 -0.00621384
0.0947993 -0.267936 -0.0566515
-0.0539918 -0.267936 -0.00621384
0.0947993 0.267936 -0.0566515
-0.0539918 -0.267936 -0.00621384
-0.0539918 0.267936 -0.00621384
-0.1336 -0.267936 0.153002
-0.1336 0.267936 0.153002
-0.1336 0.267936 0.153002
-0.1336 -0.267936 0.153002
-0.393447 -0.267936 0.153002
-0.393447 0.267936 0.153002
-0.0539918 0.267936 -0.00621384
-0.104758 0.267936 -0.0644482
-0.0539918 -0.267936 -0.00621384
-0.104758 -0.267936 -0.0644482
3 0 1 2
3 3 0 2
3 4 5 6
3 5 7 6
3 0 3 8
3 9 0 8
3 10 11 12
3 11 13 12
3 14 15 16
3 14 17 15
3 18 19 20
3 18 20 21
3 7 5 20
3 5 21 20
3 2 1 22
3 1 23 22
3 24 25 26
3 24 27 25
3 28 29 30
3 29 31 30
3 34 33 32
3 34 32 35
3 35 4 34
3 4 6 34
3 21 32 18
3 23 1 0
3 4 21 5
3 4 35 21
3 21 35 32
3 18 32 36
3 9 37 36
3 37 18 36
3 0 9 23
3 9 36 23
3 3 2 22
3 38 33 19
3 19 39 38
3 20 6 7
3 20 34 6
3 20 19 33
3 20 33 34
3 8 38 39
3 8 22 38
3 8 3 22
