ply
format ascii 1.0
comment Generated by the CGAL library
element vertex 20
property double x
property double y
property double z
element face 20
property list uchar int vertex_indices
end_header
0.319283 0.168399 0.133976
0.305479 -0.192307 0.133976
0.305479 -0.192307 -0.133976
0.319283 0.168399 -0.133976
-0.319283 -0.168399 0.133976
-0.305479 0.192307 0.133976
-0.0138031 -0.360707 0.133976
0.0138031 0.360707 0.133976
0.0138031 0.360707 -0.133976
-0.305479 0.192307 -0.133976
-0.0138031 -0.360707 -0.133976
-0.319283 -0.168399 -0.133976
-0.0138031 -0.360707 -0.133976
-0.0138031 -0.360707 0.133976
-0.319283 -0.168399 0.133976
-0.319283 -0.168399 -0.133976
0.0138031 0.360707 0.133976
0.0138031 0.360707 -0.133976
0.319283 0.168399 -0.133976
0.319283 0.168399 0.133976
3 0 1 2
3 3 0 2
3 6 5 4
3 1 7 5
3 1 5 6
3 1 0 7
3 3 2 8
3 2 9 8
3 2 10 9
3 9 10 11
3 2 1 12
3 1 13 12
3 13 14 15
3 13 15 12
3 11 4 5
3 11 5 9
3 9 5 16
3 9 16 17
3 17 19 18
3 17 16 19
