ply
format ascii 1.0
comment Generated by the CGAL library
element vertex 14
property double x
property double y
property double z
element face 24
property list uchar int vertex_indices
end_header
0.288675 -0.288675 0.288675
0.288675 -0.23094 -0.23094
0.288675 -0.23094 0.288675
0.288675 -0.288675 -0.288675
0.288675 0.288675 -0.288675
0.288675 0.288675 -0.23094
-0.23094 -0.23094 0.288675
-0.23094 0.288675 0.288675
-0.288675 0.288675 0.288675
-0.288675 -0.288675 0.288675
-0.288675 0.288675 -0.288675
-0.288675 -0.288675 -0.288675
-0.23094 0.288675 -0.23094
-0.23094 -0.23094 -0.23094
3 0 1 2
3 3 1 0
3 4 1 3
3 4 5 1
3 0 2 6
3 6 7 8
3 9 6 8
3 0 6 9
3 10 4 3
3 10 3 11
3 11 9 10
3 9 8 10
3 12 5 4
3 8 7 12
3 8 12 10
3 10 12 4
3 3 0 9
3 3 9 11
3 7 6 12
3 6 13 12
3 1 5 12
3 1 12 13
3 6 2 1
3 6 1 13
