ply
format ascii 1.0
comment Generated by the CGAL library
element vertex 38
property double x
property double y
property double z
element face 36
property list uchar int vertex_indices
end_header
-0.292134 0.27189 -0.30122
-0.292134 0.27189 -0.171188
-0.292134 -0.27189 -0.171188
-0.292134 -0.27189 -0.30122
-0.1965 -0.27189 -0.171188
-0.0264833 -0.27189 -0.0190969
-0.1965 -0.27189 -0.0211079
0.292134 -0.27189 -0.251915
0.125823 -0.27189 0.124702
0.00539469 -0.27189 0.124702
0.292134 -0.27189 0.281342
0.150617 -0.27189 0.30122
-0.1965 0.27189 -0.171188
0.292134 0.27189 -0.251915
-0.292134 -0.27189 -0.30122
0.292134 -0.27189 -0.251915
-0.292134 0.27189 -0.30122
0.292134 0.27189 -0.251915
0.292134 0.27189 0.281342
0.150617 -0.27189 0.30122
0.150617 0.27189 0.30122
0.125823 0.27189 0.124702
0.150617 0.27189 0.30122
0.150617 -0.27189 0.30122
0.125823 -0.27189 0.124702
0.125823 0.27189 0.124702
0.00539469 0.27189 0.124702
-0.0264833 0.27189 -0.0190969
0.00539469 -0.27189 0.124702
-0.0264833 -0.27189 -0.0190969
0.00539469 0.27189 0.124702
-0.1965 0.27189 -0.0211079
-0.0264833 -0.27189 -0.0190969
-0.1965 -0.27189 -0.0211079
-0.0264833 0.27189 -0.0190969
-0.1965 0.27189 -0.0211079
-0.0264833 0.27189 -0.0190969
0.150617 0.27189 0.30122
3 0 1 2
3 3 0 2
3 4 3 2
3 4 6 5
3 4 7 3
3 5 9 8
3 5 7 4
3 8 11 10
3 8 7 5
3 10 7 8
3 2 1 12
3 2 12 4
3 13 14 15
3 13 16 14
3 17 7 10
3 18 17 10
3 10 19 20
3 18 10 20
3 21 22 23
3 24 21 23
3 25 8 9
3 26 25 9
3 27 28 29
3 27 30 28
3 31 32 33
3 31 34 32
3 12 6 4
3 12 35 6
3 1 0 12
3 36 35 12
3 0 17 12
3 25 26 36
3 12 17 36
3 18 37 25
3 36 17 25
3 25 17 18
