ply
format ascii 1.0
comment Generated by the CGAL library
element vertex 16
property double x
property double y
property double z
element face 32
property list uchar int vertex_indices
end_header
0.436352 0.172623 -0.172623
0.436352 0.172623 0.172623
0.436352 -0.172623 0.172623
0.436352 -0.172623 -0.172623
-0.436352 0.172623 0.172623
-0.436352 -0.172623 0.172623
-0.436352 0.172623 -0.172623
-0.436352 -0.172623 -0.172623
-0.417171 0.172623 -0.0767212
-0.417171 0.172623 0.153442
-0.417171 -0.172623 0.153442
-0.417171 -0.172623 -0.0767212
-0.206188 0.172623 0.153442
-0.206188 -0.172623 0.153442
-0.206188 0.172623 -0.0767212
-0.206188 -0.172623 -0.0767212
3 0 1 2
3 0 2 3
3 2 1 4
3 2 4 5
3 6 0 3
3 7 6 3
3 8 9 10
3 8 10 11
3 10 9 12
3 10 12 13
3 15 13 14
3 13 12 14
3 14 8 11
3 15 14 11
3 4 12 9
3 6 4 8
3 4 9 8
3 6 14 0
3 4 1 12
3 8 14 6
3 14 1 0
3 12 1 14
3 10 13 5
3 11 5 7
3 11 10 5
3 3 15 7
3 13 2 5
3 7 15 11
3 3 2 15
3 15 2 13
3 7 5 6
3 5 4 6
