ply
format ascii 1.0
comment Generated by the CGAL library
element vertex 52
property double x
property double y
property double z
element face 48
property list uchar int vertex_indices
end_header
0.260055 -4.40387e-17 -0.315299
0.130027 -0.225214 -0.315299
0.130027 -0.225214 0.315299
0.260055 -4.40387e-17 0.315299
0.130027 0.225214 0.315299
0.293342 5.38051e-18 0.315299
0.146671 0.254041 0.315299
-0.146671 -0.254041 0.315299
0.130027 -0.225214 0.315299
-0.130027 -0.225214 0.315299
-0.146671 0.254041 0.315299
-0.293342 5.38051e-18 0.315299
-0.130027 0.225214 0.315299
0.146671 -0.254041 0.315299
0.260055 5.38051e-18 0.315299
-0.260055 5.38051e-18 0.315299
0.293342 4.03538e-18 0.315299
0.146671 0.254041 0.315299
0.146671 0.254041 -0.315299
0.293342 4.03538e-18 -0.315299
0.130027 -0.225214 -0.315299
-0.130027 -0.225214 -0.315299
-0.260055 -4.40387e-17 -0.315299
-0.130027 -0.225214 0.315299
-0.260055 -4.40387e-17 0.315299
-0.130027 -0.225214 -0.315299
0.146671 -0.254041 -0.315299
0.146671 -0.254041 0.315299
0.146671 -0.254041 -0.315299
-0.146671 -0.254041 -0.315299
-0.293342 4.03538e-18 -0.315299
-0.146671 -0.254041 0.315299
-0.293342 4.03538e-18 0.315299
-0.146671 -0.254041 -0.315299
-0.146671 0.254041 0.315299
-0.146671 0.254041 -0.315299
-0.146671 0.254041 -0.315299
0.146671 0.254041 -0.315299
0.130027 0.225214 -0.315299
0.260055 5.21095e-17 0.315299
0.130027 0.225214 0.315299
0.260055 5.21095e-17 -0.315299
0.130027 0.225214 -0.315299
-0.130027 0.225214 -0.315299
-0.130027 0.225214 -0.315299
-0.260055 5.21095e-17 0.315299
-0.130027 0.225214 0.315299
-0.260055 5.21095e-17 -0.315299
0.260055 5.38051e-18 -0.315299
0.293342 5.38051e-18 -0.315299
-0.260055 5.38051e-18 -0.315299
-0.293342 5.38051e-18 -0.315299
3 0 1 2
3 3 0 2
3 4 5 6
3 7 8 9
3 6 10 4
3 10 11 12
3 11 7 9
3 7 13 8
3 4 10 12
3 14 5 4
3 14 8 5
3 5 8 13
3 15 11 9
3 12 11 15
3 16 17 18
3 16 18 19
3 20 21 8
3 21 9 8
3 22 23 24
3 22 25 23
3 19 26 27
3 19 27 16
3 29 28 13
3 7 29 13
3 30 31 32
3 30 33 31
3 32 34 35
3 32 35 30
3 36 6 37
3 36 10 6
3 38 39 40
3 38 41 39
3 43 42 4
3 12 43 4
3 44 45 46
3 44 47 45
3 20 28 29
3 21 20 29
3 36 37 42
3 42 49 48
3 37 49 42
3 49 20 48
3 28 20 49
3 21 51 50
3 29 51 21
3 51 43 50
3 51 36 43
3 36 42 43
