ply
format ascii 1.0
comment Generated by the CGAL library
element vertex 16
property double x
property double y
property double z
element face 28
property list uchar int vertex_indices
end_header
-0.322917 -0.322917 -0.15625
0.322917 -0.322917 -0.15625
-0.322917 -0.322917 0.166667
0.322917 -0.322917 0.166667
0.322917 0.333333 -0.15625
-0.322917 0.333333 -0.15625
0.322917 0.333333 0.166667
-0.322917 0.333333 0.166667
0.333333 0.333333 0.166667
0.333333 -0.333333 0.166667
-0.333333 -0.333333 0.166667
-0.333333 0.333333 0.166667
-0.333333 0.333333 -0.166667
0.333333 0.333333 -0.166667
-0.333333 -0.333333 -0.166667
0.333333 -0.333333 -0.166667
3 0 1 2
3 1 3 2
3 4 0 5
3 4 1 0
3 3 1 4
3 3 4 6
3 5 0 2
3 7 5 2
3 8 3 6
3 9 3 8
3 2 10 11
3 10 3 9
3 10 2 3
3 11 7 2
3 11 5 7
3 12 5 11
3 4 5 12
3 13 4 12
3 8 4 13
3 4 8 6
3 12 10 14
3 12 11 10
3 13 9 8
3 13 15 9
3 15 12 14
3 15 13 12
3 15 10 9
3 15 14 10
