ply
format ascii 1.0
comment Generated by the CGAL library
element vertex 14
property double x
property double y
property double z
element face 24
property list uchar int vertex_indices
end_header
0.288675 -0.288675 -0.288675
-0.288675 0.288675 -0.288675
-0.288675 -0.288675 -0.288675
0.288675 0.288675 -0.288675
-0.288675 -0.288675 0.288675
-0.288675 0.288675 0.288675
0.144338 0.144338 0.288675
0.144338 -0.288675 0.288675
0.288675 0.144338 0.288675
0.288675 0.288675 0.288675
0.288675 0.144338 0.144338
0.288675 -0.288675 0.144338
0.144338 -0.288675 0.144338
0.144338 0.144338 0.144338
3 0 1 2
3 0 3 1
3 2 1 4
3 1 5 4
3 7 4 6
3 6 9 8
3 4 5 6
3 6 5 9
3 10 3 0
3 11 10 0
3 9 3 10
3 8 9 10
3 1 3 5
3 3 9 5
3 11 0 12
3 4 12 2
3 7 12 4
3 12 0 2
3 12 7 13
3 7 6 13
3 10 11 12
3 13 10 12
3 13 6 10
3 6 8 10
