ply
format ascii 1.0
comment Generated by the CGAL library
element vertex 34
property double x
property double y
property double z
element face 20
property list uchar int vertex_indices
end_header
0.333858 0.342672 -0.111215
0.346709 0.342672 -0.0889575
0.346709 -0.342672 -0.0889575
0.333858 -0.342672 -0.111215
9.20203e-18 0.342672 0.111215
0.346709 -0.342672 -0.0889575
9.20203e-18 -0.342672 0.111215
0.346709 0.342672 -0.0889575
1.52113e-17 0.342672 0.0815385
0.333858 -0.342672 -0.111215
1.52113e-17 -0.342672 0.0815385
0.333858 0.342672 -0.111215
-0.333858 0.342672 -0.111215
-0.346709 0.342672 -0.0889575
-0.346709 -0.342672 -0.0889575
-0.333858 -0.342672 -0.111215
-0.333858 0.342672 -0.111215
3.19277e-18 -0.342672 0.0815385
-0.333858 -0.342672 -0.111215
3.19277e-18 0.342672 0.0815385
-0.346709 0.342672 -0.0889575
-0.346709 -0.342672 -0.0889575
0.333858 -0.342672 -0.111215
0.346709 -0.342672 -0.0889575
1.22694e-17 -0.342672 0.0815385
-0.346709 -0.342672 -0.0889575
-0.333858 -0.342672 -0.111215
1.22694e-17 -0.342672 0.111215
1.22694e-17 0.342672 0.0815385
0.346709 0.342672 -0.0889575
1.22694e-17 0.342672 0.111215
0.333858 0.342672 -0.111215
-0.346709 0.342672 -0.0889575
-0.333858 0.342672 -0.111215
3 0 1 2
3 3 0 2
3 4 5 6
3 4 7 5
3 8 9 10
3 8 11 9
3 12 13 14
3 15 12 14
3 16 17 18
3 16 19 17
3 20 6 21
3 20 4 6
3 22 23 24
3 25 26 24
3 27 25 24
3 23 27 24
3 28 29 30
3 28 31 29
3 32 33 28
3 32 28 30
