ply
format ascii 1.0
comment Generated by the CGAL library
element vertex 12
property double x
property double y
property double z
element face 20
property list uchar int vertex_indices
end_header
0 0.242536 0
0 0.242536 0.242536
0 -0.242536 0.242536
0 -0.242536 0
0.363803 -0.242536 -0.242536
0.363803 -0.242536 0
-0.363803 -0.242536 -0.242536
-0.363803 -0.242536 0.242536
0.363803 0.242536 0
-0.363803 0.242536 0.242536
-0.363803 0.242536 -0.242536
0.363803 0.242536 -0.242536
3 0 1 2
3 3 0 2
3 3 4 5
3 3 6 4
3 3 2 7
3 6 3 7
3 8 0 3
3 5 8 3
3 7 2 1
3 7 1 9
3 10 6 7
3 10 7 9
3 11 4 10
3 4 6 10
3 5 4 11
3 5 11 8
3 9 1 0
3 10 0 11
3 9 0 10
3 11 0 8
