ply
format ascii 1.0
comment Generated by the CGAL library
element vertex 46
property double x
property double y
property double z
element face 50
property list uchar int vertex_indices
end_header
-0.42807 -0.130066 0.13518
-0.42807 0.194366 -0.13518
-0.42807 0.194366 0.13518
-0.42807 -0.130066 -0.13518
-0.38301 0.194366 0.13518
-0.38301 0.194366 -0.13518
-0.38301 0.140294 -0.13518
-0.38301 0.140294 0.13518
-0.321729 0.140294 -0.0901201
-0.321729 0.140294 0.13518
-0.321729 0.140294 -0.13518
-0.321729 -0.130066 0.13518
-0.321729 -0.130066 -0.13518
-0.321729 -0.220186 -0.13518
-0.321729 -0.220186 0.13518
-0.321729 -0.220186 0.13518
-0.173013 -0.14178 -0.0901201
-0.173013 -0.14178 0.13518
-0.321729 -0.220186 -0.13518
0.42807 0.175126 -0.13518
0.42807 0.175126 -0.0901201
-0.246711 0.0773464 -0.13518
0.410046 0.19315 -0.13518
0.42807 0.220186 -0.13518
0.410046 0.220186 -0.13518
0.42807 0.175126 -0.13518
-0.246711 0.0773464 -0.0901201
-0.173013 -0.14178 -0.0901201
0.410046 0.19315 -0.0901201
0.42807 0.175126 -0.0901201
0.42807 0.220186 -0.0901201
0.410046 0.220186 -0.0901201
-0.321729 0.140294 0.13518
-0.321729 0.140294 -0.0901201
-0.173013 -0.14178 0.13518
-0.246711 0.0773464 -0.13518
0.410046 0.19315 -0.13518
0.410046 0.19315 -0.0901201
-0.246711 0.0773464 -0.0901201
-0.246711 0.0773464 -0.0901201
-0.321729 0.140294 -0.13518
-0.246711 0.0773464 -0.13518
-0.321729 0.140294 -0.0901201
-0.321729 0.140294 -0.0901201
-0.173013 -0.14178 -0.0901201
-0.173013 -0.14178 0.13518
3 0 1 2
3 0 3 1
3 4 2 1
3 4 1 5
3 4 5 6
3 4 6 7
3 9 7 8
3 8 6 10
3 7 6 8
3 3 0 11
3 12 3 11
3 13 12 11
3 14 13 11
3 15 16 17
3 18 16 15
3 19 16 18
3 19 20 16
3 1 3 6
3 1 6 5
3 6 3 12
3 6 21 10
3 22 23 24
3 22 25 23
3 22 21 25
3 21 13 25
3 21 12 13
3 21 6 12
3 28 27 26
3 28 29 27
3 43 26 27
3 30 29 28
3 31 30 28
3 32 44 33
3 32 34 44
3 7 2 4
3 9 11 7
3 7 0 2
3 11 0 7
3 45 11 9
3 45 14 11
3 35 36 37
3 38 35 37
3 39 40 41
3 39 42 40
3 31 22 24
3 31 28 22
3 30 24 23
3 30 31 24
3 25 29 30
3 25 30 23
