ply
format ascii 1.0
comment Generated by the CGAL library
element vertex 52
property double x
property double y
property double z
element face 30
property list uchar int vertex_indices
end_header
0.174078 -0.174078 0.0870388
0 -0.348155 0.00586509
0.348155 -0.348155 0.00586509
0.348155 -0.348155 0.00586509
0.174078 -0.174078 0.0870388
0.348155 0 0.00586509
0.174078 -0.174078 0.0870388
0.348155 -9.96656e-19 0.00586509
0 -9.96656e-19 0.00586509
0 -0.348155 0.00586509
0.348155 -0.348155 -0.0870388
-0.348155 -0.348155 -0.0870388
-0.348155 -0.348155 0.00586509
-0.348155 0 0.00586509
-0.348155 0.348155 -0.0870388
-0.348155 0.348155 0.00586509
-6.31216e-18 0 0.00586509
-6.31216e-18 -0.348155 0.00586509
-0.174078 -0.174078 0.0870388
-0.348155 -0.348155 0.00586509
-0.174078 -0.174078 0.0870388
0 1.99331e-18 0.00586509
-0.348155 1.99331e-18 0.00586509
-0.174078 -0.174078 0.0870388
-0.174078 -0.174078 0.0870388
0.348155 0.348155 0.00586509
0.174078 0.174078 0.0870388
0 -1.99331e-18 0.00586509
0.348155 -1.99331e-18 0.00586509
0.174078 0.174078 0.0870388
0.174078 0.174078 0.0870388
0.348155 0.348155 0.00586509
0 0.348155 0.00586509
0.174078 0.174078 0.0870388
7.64103e-18 0 0.00586509
7.64103e-18 0.348155 0.00586509
-6.31216e-18 0.348155 0.00586509
-0.174078 0.174078 0.0870388
-0.348155 -1.99331e-18 0.00586509
-0.174078 0.174078 0.0870388
-0.348155 0.348155 0.00586509
-0.174078 0.174078 0.0870388
-0.174078 0.174078 0.0870388
0.174078 -0.174078 0.0870388
7.64103e-18 -0.348155 0.00586509
0.348155 0.348155 -0.0870388
0 0.348155 0.00586509
0 -0.348155 0.00586509
-6.31216e-18 0 0.00586509
0 -1.99331e-18 0.00586509
0 0.348155 0.00586509
7.64103e-18 0 0.00586509
3 0 1 2
3 3 4 5
3 6 7 8
3 10 9 3
3 10 11 9
3 11 12 9
3 13 11 14
3 13 12 11
3 15 13 14
3 16 17 18
3 19 47 20
3 21 22 23
3 12 13 24
3 25 5 26
3 27 28 29
3 30 31 32
3 33 34 35
3 36 48 37
3 38 49 39
3 50 40 41
3 13 15 42
3 43 44 51
3 10 14 11
3 10 45 14
3 14 45 46
3 14 46 15
3 45 25 46
3 5 45 10
3 3 5 10
3 5 25 45
