ply
format ascii 1.0
comment Generated by the CGAL library
element vertex 18
property double x
property double y
property double z
element face 32
property list uchar int vertex_indices
end_header
-0.412468 -0.231232 -0.162487
-0.412468 0.231232 -0.162487
-0.412468 -0.231232 0.024998
-0.412468 0.231232 0.024998
-0.0937427 -0.231232 0.024998
0.368721 -0.231232 0.0999922
-0.0937427 -0.231232 0.0999922
0.412468 -0.231232 -0.162487
0.412468 -0.231232 0.162487
0.368721 -0.231232 0.162487
0.368721 -0.143739 0.0999922
0.368721 0.231232 0.024998
0.368721 0.231232 0.162487
0.368721 -0.143739 0.024998
-0.0937427 -0.143739 0.024998
0.412468 0.231232 -0.162487
0.412468 0.231232 0.162487
-0.0937427 -0.143739 0.0999922
3 0 1 2
3 1 3 2
3 4 0 2
3 4 6 5
3 4 7 0
3 5 9 8
3 5 8 7
3 5 7 4
3 9 5 10
3 11 12 10
3 13 11 10
3 10 12 9
3 4 2 14
3 11 14 3
3 13 14 11
3 14 2 3
3 1 0 7
3 15 1 7
3 3 1 11
3 16 12 11
3 15 16 11
3 1 15 11
3 8 16 15
3 7 8 15
3 12 16 9
3 16 8 9
3 14 6 4
3 14 17 6
3 17 14 13
3 10 17 13
3 5 6 17
3 5 17 10
