ply
format ascii 1.0
comment Generated by the CGAL library
element vertex 16
property double x
property double y
property double z
element face 32
property list uchar int vertex_indices
end_header
-0.277128 0.277128 0.288675
-0.288675 0.288675 0.288675
-0.277128 -0.277128 0.288675
0.288675 -0.288675 0.288675
0.277128 0.277128 0.288675
0.277128 -0.277128 0.288675
0.288675 0.288675 0.288675
-0.288675 -0.288675 0.288675
-0.277128 0.277128 -0.288675
-0.288675 0.288675 -0.288675
-0.277128 -0.277128 -0.288675
0.288675 -0.288675 -0.288675
0.277128 0.277128 -0.288675
0.277128 -0.277128 -0.288675
0.288675 0.288675 -0.288675
-0.288675 -0.288675 -0.288675
3 0 1 2
3 3 4 5
3 1 4 6
3 7 5 2
3 7 3 5
3 6 4 3
3 1 0 4
3 7 2 1
3 10 9 8
3 13 12 11
3 14 12 9
3 10 13 15
3 13 11 15
3 11 12 14
3 12 8 9
3 9 10 15
3 11 7 15
3 11 3 7
3 6 3 14
3 3 11 14
3 9 1 14
3 1 6 14
3 10 0 2
3 10 8 0
3 2 5 10
3 5 13 10
3 5 4 13
3 4 12 13
3 8 4 0
3 8 12 4
3 15 7 9
3 7 1 9
