ply
format ascii 1.0
comment Generated by the CGAL library
element vertex 18
property double x
property double y
property double z
element face 32
property list uchar int vertex_indices
end_header
0.312348 0.312348 -0.0780869
0 0.312348 -0.0780869
0 1.04013e-17 -0.0780869
-0.312348 -0.312348 -0.0780869
0.312348 -0.312348 -0.0780869
-0.312348 1.04013e-17 -0.0780869
0.312348 -0.312348 -0.234261
-0.312348 -0.312348 -0.234261
-0.312348 0.312348 -0.234261
0.312348 0.312348 -0.234261
-0.312348 0.312348 0.234261
-0.312348 1.04013e-17 0.234261
0 0.312348 0.0780869
0.312348 0.312348 0.0780869
0.312348 0.312348 0.234261
0 1.04013e-17 0.0780869
0.312348 1.04013e-17 0.0780869
0.312348 1.04013e-17 0.234261
3 0 1 2
3 3 4 2
3 5 3 2
3 2 4 0
3 4 3 6
3 3 7 6
3 8 6 7
3 8 9 6
3 7 3 5
3 8 5 10
3 7 5 8
3 10 5 11
3 12 1 10
3 8 1 9
3 12 14 13
3 12 10 14
3 1 8 10
3 0 9 1
3 9 4 6
3 9 0 4
3 2 1 15
3 1 12 15
3 15 5 2
3 15 11 5
3 15 16 17
3 11 15 17
3 17 16 13
3 17 13 14
3 11 17 10
3 17 14 10
3 12 16 15
3 12 13 16
