ply
format ascii 1.0
comment Generated by the CGAL library
element vertex 10
property double x
property double y
property double z
element face 8
property list uchar int vertex_indices
end_header
-0.464294 -0.125746 0.136451
-0.464294 -0.125746 -0.136451
0.464294 -0.125746 -0.136451
0.464294 -0.125746 0.136451
0.464294 0.125746 0.136451
-0.464294 0.125746 0.136451
-0.464294 0.125746 0.136451
0.464294 -0.125746 -0.136451
0.464294 0.125746 0.136451
-0.464294 -0.125746 -0.136451
3 0 1 2
3 0 2 3
3 4 3 2
3 5 3 4
3 5 0 3
3 6 7 8
3 6 9 7
3 1 0 5
