ply
format ascii 1.0
comment Generated by the CGAL library
element vertex 24
property double x
property double y
property double z
element face 28
property list uchar int vertex_indices
end_header
-0.0358094 -0.44917 0.112293
0.188776 -0.44917 -0.112293
0.188776 -0.44917 0.112293
-0.0358094 -0.44917 -0.112293
-0.0358094 -0.112293 0.112293
-0.188776 -0.134751 0.112293
-0.0358094 0.112293 0.112293
-0.188776 0.134751 0.112293
0.188776 0.44917 0.112293
-0.0358094 0.44917 0.112293
-0.0358094 -0.112293 -0.112293
0.188776 0.44917 -0.112293
-0.0358094 0.44917 -0.112293
-0.0358094 0.112293 -0.112293
-0.188776 0.134751 0.112293
-0.0358094 0.112293 0.112293
-0.0358094 0.112293 -0.112293
-0.188776 0.134751 -0.112293
-0.188776 0.134751 -0.112293
-0.188776 -0.134751 -0.112293
-0.188776 -0.134751 0.112293
-0.0358094 -0.112293 0.112293
-0.0358094 -0.112293 -0.112293
-0.188776 -0.134751 -0.112293
3 0 1 2
3 0 3 1
3 4 0 2
3 4 6 5
3 6 7 5
3 8 6 4
3 8 9 6
3 2 8 4
3 10 3 0
3 4 10 0
3 2 1 11
3 2 11 8
3 12 9 11
3 9 8 11
3 13 6 12
3 6 9 12
3 14 15 16
3 14 16 17
3 19 5 18
3 5 7 18
3 20 21 22
3 23 20 22
3 13 12 11
3 1 10 11
3 10 1 3
3 13 19 18
3 13 10 19
3 13 11 10
