ply
format ascii 1.0
comment Generated by the CGAL library
element vertex 36
property double x
property double y
property double z
element face 76
property list uchar int vertex_indices
end_header
-0.183446 -0.183446 -0.416422
-0.183446 0.183446 -0.427429
-0.183446 0.183446 -0.416422
-0.183446 -0.183446 -0.427429
-0.172439 -0.172439 -0.416422
-0.172439 0 -0.427429
-0.172439 0 -0.416422
-0.172439 -0.172439 -0.427429
0.183446 0.183446 -0.427429
0.183446 0.183446 -0.416422
0.172439 -0.172439 -0.416422
0.183446 -0.183446 -0.416422
0.172439 0 -0.416422
-0.172439 0.0110067 -0.416422
0.172439 0.172439 -0.416422
2.08554e-17 0.0110067 -0.416422
2.08554e-17 0 -0.416422
-0.172439 0.172439 -0.416422
0.172439 0.0110067 -0.416422
-0.0110067 0 -0.416422
-0.0110067 0.0110067 -0.416422
0.172439 0.0110067 -0.427429
-0.172439 0.0110067 -0.427429
2.08554e-17 0.0110067 0.427429
-0.0110067 0.0110067 0.427429
0.172439 -0.172439 -0.427429
0.183446 -0.183446 -0.427429
0.172439 0 -0.427429
-0.172439 0.172439 -0.427429
0.172439 0.172439 -0.427429
-0.0110067 0 0.416422
2.08554e-17 0 0.416422
-0.0110067 -0.0733783 0.416422
-0.0110067 -0.0733783 0.427429
2.08554e-17 -0.0733783 0.416422
2.08554e-17 -0.0733783 0.427429
3 0 1 2
3 0 3 1
3 6 5 4
3 5 7 4
3 2 1 8
3 2 8 9
3 11 0 10
3 6 0 2
3 0 4 10
3 4 0 6
3 11 12 9
3 10 12 11
3 6 2 13
3 2 9 14
3 16 15 12
3 17 2 14
3 15 18 12
3 18 9 12
3 14 9 18
3 13 20 19
3 13 2 17
3 13 19 6
3 21 18 15
3 22 15 20
3 21 15 22
3 20 15 23
3 20 23 24
3 22 20 13
3 25 3 26
3 25 7 3
3 5 3 7
3 22 5 27
3 1 3 5
3 8 27 26
3 27 25 26
3 21 22 27
3 1 5 22
3 8 21 27
3 28 1 22
3 8 29 21
3 8 1 29
3 29 1 28
3 5 6 19
3 16 5 19
3 30 31 19
3 31 16 19
3 16 12 27
3 16 27 5
3 10 27 12
3 10 25 27
3 29 17 14
3 29 28 17
3 28 13 17
3 28 22 13
3 4 7 25
3 4 25 10
3 26 3 0
3 11 26 0
3 29 18 21
3 29 14 18
3 33 32 30
3 33 30 24
3 24 30 20
3 30 19 20
3 16 31 15
3 34 35 31
3 31 35 23
3 15 31 23
3 33 24 23
3 35 33 23
3 31 30 32
3 31 32 34
3 34 32 33
3 35 34 33
3 11 9 8
3 11 8 26
