ply
format ascii 1.0
comment Generated by the CGAL library
element vertex 24
property double x
property double y
property double z
element face 44
property list uchar int vertex_indices
end_header
-0.342856 0.247377 0.0863651
-0.342856 0.247377 0.0872331
-0.342856 -0.247377 0.0872331
-0.342856 -0.247377 0.0863651
0.386256 0.247377 0.0863651
0.386256 0.247377 0.0872331
0.386256 -0.247377 0.0863651
0.386256 -0.247377 0.0872331
-0.273417 0.247377 0.0342856
-0.273417 0.247377 -0.0872331
0.0130199 0.247377 -0.0872331
0.0130199 0.247377 0.0342856
0.412296 -0.269077 0.0342856
0.412296 0.269077 0.0342856
0.0130199 0.216998 0.0342856
-0.273417 0.216998 0.0342856
-0.412296 0.269077 0.0342856
-0.412296 -0.269077 0.0342856
0.0130199 0.216998 -0.0872331
-0.273417 0.216998 -0.0872331
-0.412296 0.269077 0.0863651
0.412296 0.269077 0.0863651
0.412296 -0.269077 0.0863651
-0.412296 -0.269077 0.0863651
3 0 1 2
3 0 2 3
3 1 0 4
3 5 1 4
3 6 3 2
3 7 6 2
3 8 9 10
3 8 10 11
3 12 13 14
3 15 16 17
3 13 11 14
3 8 16 15
3 8 11 16
3 16 11 13
3 15 17 14
3 14 17 12
3 18 10 9
3 19 18 9
3 20 16 13
3 21 20 13
3 8 19 9
3 8 15 19
3 15 18 19
3 15 14 18
3 10 18 11
3 18 14 11
3 7 2 1
3 7 1 5
3 7 5 4
3 7 4 6
3 4 0 21
3 20 0 3
3 4 21 22
3 0 20 21
3 20 3 23
3 4 22 6
3 6 22 3
3 22 23 3
3 21 13 22
3 13 12 22
3 23 12 17
3 23 22 12
3 23 16 20
3 23 17 16
