ply
format ascii 1.0
comment Generated by the CGAL library
element vertex 30
property double x
property double y
property double z
element face 44
property list uchar int vertex_indices
end_header
-0.383806 0.248038 0.202903
-0.266315 0.248038 0.202903
-0.383806 0.248038 -0.202903
-0.266315 0.248038 -0.202903
0.00783278 0.248038 -0.202903
0.00783278 0.248038 0.202903
0.383806 0.248038 0.202903
0.383806 0.248038 -0.202903
0.00783278 -0.248038 -0.202903
0.383806 -0.248038 -0.202903
0.00783278 -0.248038 -0.176794
0.383806 -0.248038 -0.0593021
-0.383806 -0.248038 -0.202903
-0.266315 -0.248038 -0.202903
-0.266315 -0.248038 -0.176794
-0.383806 -0.248038 -0.0593021
-0.383806 0.19582 0.202903
-0.383806 0.059627 -0.171283
0.383806 0.059627 -0.171283
0.383806 0.19582 0.202903
0.383806 0.059627 -0.171283
-0.383806 0.059627 -0.171283
0.383806 -0.248038 -0.0593021
-0.383806 -0.248038 -0.0593021
0.383806 0.059627 -0.171283
-0.383806 0.059627 -0.171283
-0.266315 0.221929 -0.176794
-0.266315 0.221929 0.202903
0.00783278 0.221929 -0.176794
0.00783278 0.221929 0.202903
3 0 1 2
3 1 3 2
3 4 5 6
3 4 6 7
3 8 7 9
3 8 4 7
3 10 9 11
3 10 8 9
3 12 13 14
3 12 14 15
3 15 10 11
3 15 14 10
3 2 3 12
3 3 13 12
3 16 17 18
3 19 16 18
3 20 21 22
3 21 23 22
3 19 24 7
3 24 9 7
3 19 7 6
3 9 24 11
3 15 25 12
3 12 25 2
3 2 25 16
3 2 16 0
3 26 1 27
3 3 26 13
3 13 26 14
3 3 1 26
3 29 5 28
3 8 28 4
3 10 28 8
3 28 5 4
3 27 0 16
3 27 1 0
3 6 5 29
3 19 29 16
3 19 6 29
3 29 27 16
3 14 26 28
3 14 28 10
3 26 27 29
3 26 29 28
