ply
format ascii 1.0
comment Generated by the CGAL library
element vertex 34
property double x
property double y
property double z
element face 48
property list uchar int vertex_indices
end_header
0.288675 -0.144338 -0.288675
-0.0422755 -0.144338 -0.288675
0.288675 -0.288675 -0.288675
0.288675 0.186613 -0.288675
0.186613 0.288675 -0.288675
-0.144338 -0.0422755 -0.288675
-0.288675 0.288675 -0.288675
-0.288675 -0.288675 -0.288675
-0.144338 0.288675 -0.288675
0.288675 0.288675 -0.288675
-0.144338 -0.288675 -0.144338
0.288675 -0.288675 -0.144338
-0.144338 -0.288675 0.288675
-0.288675 -0.288675 0.288675
-0.288675 -0.144338 -0.144338
-0.288675 0.288675 -0.144338
-0.288675 -0.144338 0.288675
-0.144338 -0.144338 0.288675
-0.144338 -0.144338 -0.144338
-0.144338 0.288675 -0.144338
-0.144338 -0.0422755 -0.288675
0.186613 0.288675 -0.288675
0.186613 0.288675 -0.144338
-0.144338 -0.0422755 -0.144338
-0.0422755 -0.144338 -0.288675
0.288675 0.186613 -0.288675
0.288675 0.186613 -0.144338
-0.0422755 -0.144338 -0.144338
0.288675 0.288675 -0.144338
0.288675 0.186613 -0.144338
0.186613 0.288675 -0.144338
-0.144338 -0.0422755 -0.144338
0.288675 -0.144338 -0.144338
-0.0422755 -0.144338 -0.144338
3 0 1 2
3 3 4 1
3 5 6 7
3 2 1 7
3 8 6 5
3 9 4 3
3 1 5 7
3 1 4 5
3 11 2 10
3 10 13 12
3 2 7 10
3 10 7 13
3 14 6 15
3 7 14 13
3 13 14 16
3 7 6 14
3 17 10 12
3 17 18 10
3 14 18 17
3 16 14 17
3 16 17 12
3 13 16 12
3 15 8 19
3 15 6 8
3 20 21 22
3 23 20 22
3 24 25 26
3 27 24 26
3 28 3 29
3 28 9 3
3 28 4 9
3 28 30 4
3 31 8 5
3 31 19 8
3 11 0 2
3 11 32 0
3 33 0 32
3 33 1 0
3 33 11 10
3 18 14 31
3 30 29 33
3 15 19 31
3 15 31 14
3 30 28 29
3 30 33 31
3 31 33 18
3 33 10 18
3 32 11 33
