ply
format ascii 1.0
comment Generated by the CGAL library
element vertex 24
property double x
property double y
property double z
element face 20
property list uchar int vertex_indices
end_header
0.096225 0.288675 -0.0900666
0.096225 -0.288675 -0.0900666
-0.0900666 -0.474967 -0.0900666
-0.0900666 0.474967 -0.0900666
-0.0900666 -0.474967 0.096225
-0.0900666 0.474967 0.096225
0.096225 0.288675 -0.096225
0.096225 -0.288675 -0.096225
-0.096225 -0.481125 -0.096225
-0.096225 0.481125 -0.096225
-0.096225 -0.481125 0.096225
-0.096225 0.481125 0.096225
-0.096225 -0.481125 0.096225
-0.0900666 -0.474967 -0.0900666
-0.0900666 -0.474967 0.096225
-0.096225 -0.481125 -0.096225
0.096225 -0.288675 -0.096225
0.096225 -0.288675 -0.0900666
-0.0900666 0.474967 -0.0900666
-0.096225 0.481125 0.096225
-0.0900666 0.474967 0.096225
-0.096225 0.481125 -0.096225
0.096225 0.288675 -0.0900666
0.096225 0.288675 -0.096225
3 0 1 2
3 0 2 3
3 4 3 2
3 4 5 3
3 6 1 0
3 6 7 1
3 8 7 6
3 8 6 9
3 5 4 10
3 11 5 10
3 10 9 11
3 10 8 9
3 12 13 14
3 15 13 12
3 16 13 15
3 16 17 13
3 18 19 20
3 18 21 19
3 18 22 23
3 21 18 23
