ply
format ascii 1.0
comment Generated by the CGAL library
element vertex 16
property double x
property double y
property double z
element face 28
property list uchar int vertex_indices
end_header
0.169687 -0.127265 -0.101812
0.0848433 -0.212108 -0.101812
0.0848433 -0.212108 0.101812
0.169687 -0.127265 0.101812
0.441185 -0.127265 -0.101812
0.441185 -0.127265 0.101812
-0.0848433 -0.212108 -0.101812
-0.0848433 -0.212108 0.101812
-0.441185 -0.127265 -0.101812
-0.169687 -0.127265 -0.101812
-0.441185 -0.127265 0.101812
-0.169687 -0.127265 0.101812
-0.441185 0.212108 -0.101812
-0.441185 0.212108 0.101812
0.441185 0.212108 -0.101812
0.441185 0.212108 0.101812
3 0 1 2
3 0 2 3
3 4 0 3
3 5 4 3
3 2 1 6
3 2 6 7
3 10 9 8
3 10 11 9
3 10 8 12
3 10 12 13
3 14 4 5
3 15 14 5
3 13 12 14
3 13 14 15
3 11 7 9
3 7 6 9
3 11 3 2
3 7 11 2
3 10 13 11
3 13 3 11
3 13 15 3
3 15 5 3
3 12 0 14
3 14 0 4
3 9 0 12
3 9 12 8
3 1 0 9
3 1 9 6
