ply
format ascii 1.0
comment Generated by the CGAL library
element vertex 120
property double x
property double y
property double z
element face 84
property list uchar int vertex_indices
end_header
-0.398493 0.143621 -0.265662
-0.398493 -0.122041 -0.265662
0.398493 -0.122041 -0.265662
0.398493 0.143621 -0.265662
-0.398493 -0.0714552 0.0977214
0.398493 -0.0714552 0.0977214
-0.398493 -0.0583739 0.0954148
0.398493 -0.0583739 0.0954148
-0.398493 0.143621 0.265662
-0.398493 -0.0283547 0.265662
0.398493 -0.0283547 0.265662
0.398493 0.143621 0.265662
-0.398493 -0.087752 -0.0711967
-0.398493 -0.100833 -0.0688901
0.398493 -0.100833 -0.0688901
0.398493 -0.087752 -0.0711967
0.398493 -0.0900585 -0.084278
-0.398493 -0.0900585 -0.084278
0.398493 -0.115151 -0.226587
-0.398493 -0.115151 -0.226587
0.398493 -0.139007 -0.208892
0.398493 -0.125926 -0.211199
-0.398493 -0.125926 -0.211199
-0.398493 -0.139007 -0.208892
0.398493 -0.128233 -0.22428
-0.398493 -0.125926 -0.211199
-0.398493 -0.128233 -0.22428
0.398493 -0.125926 -0.211199
0.398493 -0.143621 -0.235055
-0.398493 -0.139007 -0.208892
-0.398493 -0.143621 -0.235055
0.398493 -0.139007 -0.208892
-0.398493 -0.143621 -0.235055
0.398493 -0.143621 -0.235055
-0.398493 -0.117458 -0.239668
0.398493 -0.117458 -0.239668
0.398493 -0.115151 -0.226587
-0.398493 -0.115151 -0.226587
0.398493 -0.128233 -0.22428
-0.398493 -0.128233 -0.22428
0.398493 -0.0691486 0.110803
-0.398493 -0.0691486 0.110803
0.398493 -0.0822299 0.113109
-0.398493 -0.0822299 0.113109
0.398493 -0.0691486 0.110803
-0.398493 -0.0691486 0.110803
0.398493 -0.0714552 0.0977214
-0.398493 -0.0714552 0.0977214
0.398493 -0.0822299 0.113109
-0.398493 -0.0822299 0.113109
0.398493 -0.0868431 0.0869467
-0.398493 -0.0868431 0.0869467
-0.398493 -0.0868431 0.0869467
0.398493 -0.0868431 0.0869467
-0.398493 -0.0606804 0.0823335
0.398493 -0.0606804 0.0823335
0.398493 -0.0900585 -0.084278
-0.398493 -0.0900585 -0.084278
0.398493 -0.116221 -0.0796648
-0.398493 -0.116221 -0.0796648
-0.398493 -0.116221 -0.0796648
0.398493 -0.116221 -0.0796648
-0.398493 -0.111608 -0.0535022
0.398493 -0.111608 -0.0535022
-0.398493 -0.0985267 -0.0558088
-0.398493 -0.100833 -0.0688901
0.398493 -0.100833 -0.0688901
0.398493 -0.0985267 -0.0558088
-0.398493 -0.111608 -0.0535022
0.398493 -0.111608 -0.0535022
-0.398493 -0.0985267 -0.0558088
0.398493 -0.0985267 -0.0558088
-0.398493 -0.100833 -0.0688901
-0.398493 -0.116221 -0.0796648
-0.398493 -0.111608 -0.0535022
-0.398493 -0.117458 -0.239668
-0.398493 -0.128233 -0.22428
-0.398493 -0.139007 -0.208892
-0.398493 -0.125926 -0.211199
-0.398493 -0.143621 -0.235055
-0.398493 -0.0606804 0.0823335
-0.398493 -0.0714552 0.0977214
-0.398493 -0.0583739 0.0954148
-0.398493 -0.115151 -0.226587
-0.398493 -0.0900585 -0.084278
-0.398493 -0.0985267 -0.0558088
-0.398493 -0.087752 -0.0711967
-0.398493 -0.0822299 0.113109
-0.398493 -0.0691486 0.110803
-0.398493 -0.0868431 0.0869467
0.398493 -0.100833 -0.0688901
0.398493 -0.116221 -0.0796648
0.398493 -0.111608 -0.0535022
0.398493 -0.117458 -0.239668
0.398493 -0.128233 -0.22428
0.398493 -0.139007 -0.208892
0.398493 -0.125926 -0.211199
0.398493 -0.143621 -0.235055
0.398493 -0.0606804 0.0823335
0.398493 -0.0714552 0.0977214
0.398493 -0.0583739 0.0954148
0.398493 -0.115151 -0.226587
0.398493 -0.0900585 -0.084278
0.398493 -0.0985267 -0.0558088
0.398493 -0.087752 -0.0711967
0.398493 -0.0822299 0.113109
0.398493 -0.0691486 0.110803
0.398493 -0.0868431 0.0869467
-0.398493 -0.0583739 0.0954148
0.398493 -0.0583739 0.0954148
-0.398493 -0.0283547 0.265662
0.398493 -0.0283547 0.265662
0.398493 -0.0606804 0.0823335
-0.398493 -0.0606804 0.0823335
0.398493 -0.087752 -0.0711967
-0.398493 -0.087752 -0.0711967
-0.398493 -0.117458 -0.239668
0.398493 -0.122041 -0.265662
0.398493 -0.117458 -0.239668
-0.398493 -0.122041 -0.265662
3 0 1 2
3 3 0 2
3 4 5 6
3 5 7 6
3 10 9 8
3 10 8 11
3 12 13 14
3 12 14 15
3 16 17 18
3 17 19 18
3 20 21 22
3 23 20 22
3 24 25 26
3 24 27 25
3 28 29 30
3 28 31 29
3 32 33 34
3 33 35 34
3 36 37 38
3 37 39 38
3 40 41 42
3 41 43 42
3 44 45 46
3 45 47 46
3 48 49 50
3 49 51 50
3 52 53 54
3 53 55 54
3 56 57 58
3 57 59 58
3 60 61 62
3 61 63 62
3 64 65 66
3 67 64 66
3 68 69 70
3 69 71 70
3 74 73 72
3 75 1 0
3 78 77 76
3 77 79 76
3 82 81 80
3 76 79 75
3 0 83 75
3 83 76 75
3 0 84 83
3 85 74 72
3 72 73 84
3 0 86 84
3 86 72 84
3 0 80 86
3 88 87 81
3 80 81 89
3 81 87 89
3 8 82 80
3 8 9 82
3 0 8 80
3 90 91 92
3 3 2 93
3 94 95 96
3 94 97 95
3 98 99 100
3 93 97 94
3 93 101 3
3 93 94 101
3 101 102 3
3 90 92 103
3 102 91 90
3 102 104 3
3 102 90 104
3 104 98 3
3 99 105 106
3 107 99 98
3 107 105 99
3 98 100 11
3 100 10 11
3 98 11 3
3 8 3 11
3 8 0 3
3 108 109 110
3 109 111 110
3 112 113 114
3 113 115 114
3 116 117 118
3 116 119 117
