ply
format ascii 1.0
comment Generated by the CGAL library
element vertex 76
property double x
property double y
property double z
element face 84
property list uchar int vertex_indices
end_header
-0.282138 -0.235115 -0.246871
-0.282138 -0.235115 0.293894
-0.282138 -0.188092 0.293894
-0.282138 -0.188092 -0.246871
-0.329161 -0.188092 -0.246871
-0.329161 -0.188092 0.293894
-0.282138 0.235115 0.293894
-0.282138 0.188092 0.293894
-0.329161 0.188092 0.293894
-0.329161 0.235115 0.293894
0.329161 -0.164581 -0.270382
0.329161 0.164581 -0.270382
0.258627 0.164581 -0.270382
-0.258627 -0.164581 -0.270382
0.258627 -0.235115 -0.270382
0.258627 -0.164581 -0.270382
-0.258627 0.164581 -0.270382
-0.329161 0.164581 -0.270382
-0.258627 -0.235115 -0.270382
-0.329161 -0.164581 -0.270382
-0.258627 0.235115 -0.270382
0.258627 0.235115 -0.270382
-0.329161 -0.235115 0.293894
-0.329161 -0.235115 -0.293894
-0.329161 0.235115 -0.293894
-0.329161 0.188092 -0.246871
0.329161 -0.235115 -0.293894
0.329161 0.235115 -0.293894
-0.282138 0.235115 -0.246871
0.329161 0.235115 0.293894
0.282138 0.235115 0.293894
0.282138 0.235115 -0.246871
0.329161 0.188092 -0.246871
0.329161 0.188092 0.293894
0.329161 -0.235115 0.293894
0.329161 -0.188092 0.293894
0.329161 -0.188092 -0.246871
0.282138 -0.235115 0.293894
0.282138 -0.235115 -0.246871
0.329161 0.164581 -0.270382
0.329161 0.188092 -0.246871
0.282138 0.188092 -0.246871
0.258627 0.164581 -0.270382
0.258627 0.164581 -0.270382
0.258627 0.235115 -0.270382
0.282138 0.188092 -0.246871
0.282138 0.235115 -0.246871
0.329161 -0.164581 -0.270382
0.329161 -0.188092 -0.246871
0.282138 -0.188092 -0.246871
0.258627 -0.164581 -0.270382
0.258627 -0.235115 -0.270382
0.258627 -0.164581 -0.270382
0.282138 -0.188092 -0.246871
0.282138 -0.235115 -0.246871
-0.329161 0.164581 -0.270382
-0.258627 0.164581 -0.270382
-0.282138 0.188092 -0.246871
-0.329161 0.188092 -0.246871
-0.258627 0.164581 -0.270382
-0.282138 0.188092 -0.246871
-0.258627 0.235115 -0.270382
-0.282138 0.235115 -0.246871
-0.258627 -0.235115 -0.270382
-0.282138 -0.188092 -0.246871
-0.258627 -0.164581 -0.270382
-0.282138 -0.235115 -0.246871
-0.329161 -0.164581 -0.270382
-0.258627 -0.164581 -0.270382
-0.282138 -0.188092 -0.246871
-0.329161 -0.188092 -0.246871
0.282138 0.188092 0.293894
0.282138 0.188092 -0.246871
0.282138 -0.188092 0.293894
0.282138 -0.188092 -0.246871
-0.282138 0.188092 -0.246871
3 0 1 2
3 0 2 3
3 4 3 2
3 5 4 2
3 6 7 8
3 9 6 8
3 12 11 10
3 15 14 13
3 13 17 16
3 18 13 14
3 16 15 13
3 19 17 13
3 10 15 12
3 20 12 16
3 21 12 20
3 12 15 16
3 22 4 5
3 22 23 4
3 9 25 24
3 8 25 9
3 4 23 19
3 25 17 24
3 17 23 24
3 19 23 17
3 24 23 26
3 27 24 26
3 28 9 24
3 28 6 9
3 29 30 31
3 27 29 31
3 27 21 24
3 27 31 21
3 21 20 24
3 20 28 24
3 32 29 27
3 32 33 29
3 34 35 36
3 26 34 36
3 26 10 11
3 26 36 10
3 26 11 27
3 11 32 27
3 22 1 0
3 14 26 23
3 14 23 18
3 38 37 34
3 38 34 26
3 38 26 14
3 18 23 0
3 22 0 23
3 39 40 41
3 39 41 42
3 43 44 45
3 44 46 45
3 47 48 49
3 47 49 50
3 51 52 53
3 54 51 53
3 55 56 57
3 58 55 57
3 59 60 61
3 60 62 61
3 63 64 65
3 63 66 64
3 67 68 69
3 70 67 69
3 29 33 71
3 29 71 30
3 33 32 72
3 71 33 72
3 30 72 31
3 30 71 72
3 35 34 37
3 73 35 37
3 73 37 38
3 74 73 38
3 74 36 35
3 73 74 35
3 2 1 22
3 2 22 5
3 7 6 75
3 6 28 75
3 8 7 25
3 7 75 25
