ply
format ascii 1.0
comment Generated by the CGAL library
element vertex 28
property double x
property double y
property double z
element face 52
property list uchar int vertex_indices
end_header
-0.466169 -0.0341419 0.101375
0.466169 -0.149699 0.101375
0.466169 -0.0341419 0.101375
-0.466169 -0.149699 0.101375
0.466169 -0.149699 -0.101375
0.466169 -0.0341419 -0.101375
-0.466169 -0.149699 -0.101375
-0.466169 -0.0341419 -0.101375
-0.165969 -0.0341419 -0.026263
-0.165969 -0.0604049 -0.026263
0.380814 -0.0604049 -0.026263
0.380814 -0.0341419 -0.026263
-0.271021 -0.0604049 -0.026263
-0.271021 -0.0341419 -0.026263
-0.380814 -0.0341419 -0.026263
-0.380814 -0.0604049 -0.026263
0.380814 -0.0341419 0.026263
0.380814 -0.0604049 0.026263
-0.165969 -0.0341419 0.026263
-0.165969 -0.0604049 0.026263
-0.380814 -0.0341419 0.026263
-0.380814 -0.0604049 0.026263
-0.271021 -0.0341419 0.026263
-0.165969 0.149699 -0.026263
-0.165969 0.149699 0.026263
-0.271021 0.149699 -0.026263
-0.271021 -0.0604049 0.026263
-0.271021 0.149699 0.026263
3 0 1 2
3 0 3 1
3 5 2 4
3 2 1 4
3 6 0 7
3 6 3 0
3 8 9 10
3 11 8 10
3 12 13 14
3 12 14 15
3 16 11 10
3 17 16 10
3 18 16 17
3 19 18 17
3 15 14 20
3 15 20 21
3 0 2 18
3 7 8 5
3 18 2 16
3 8 11 5
3 16 2 5
3 16 5 11
3 0 18 22
3 0 22 20
3 0 14 7
3 20 14 0
3 13 8 7
3 14 13 7
3 1 3 4
3 3 6 4
3 7 5 4
3 7 4 6
3 8 19 9
3 23 18 8
3 8 18 19
3 24 18 23
3 23 8 13
3 25 23 13
3 12 26 13
3 13 22 25
3 26 22 13
3 25 22 27
3 27 22 24
3 22 18 24
3 27 24 23
3 27 23 25
3 26 21 20
3 26 20 22
3 12 15 21
3 12 21 26
3 19 17 10
3 9 19 10
