ply
format ascii 1.0
comment Generated by the CGAL library
element vertex 80
property double x
property double y
property double z
element face 60
property list uchar int vertex_indices
end_header
-0.242136 -0.188843 -0.0184199
-0.242136 -0.188843 -0.0656861
0.249087 -0.188843 -0.0656861
0.249087 -0.188843 -0.0184199
0.249087 0.165672 -0.0656861
0.249087 0.165672 -0.0184199
-0.242136 0.165672 -0.0656861
-0.242136 0.165672 -0.0184199
0.367258 0.320917 -0.110154
-0.367258 0.320917 -0.110154
0.367258 -0.320917 -0.110154
-0.367258 -0.320917 -0.110154
-0.367258 -0.320917 -0.0656861
-0.367258 0.320917 -0.0656861
0.367258 0.320917 -0.0656861
0.367258 -0.320917 -0.0656861
-0.242136 0.165672 0.110154
-0.367258 0.320917 0.110154
-0.367258 0.320917 -0.110154
-0.242136 0.165672 -0.110154
-0.0955045 0.188871 0.110154
-0.159084 0.312783 0.110154
-0.159084 0.312783 -0.110154
-0.0955045 0.188871 -0.110154
0.0952978 0.188871 0.110154
0.157618 0.312783 0.110154
0.157618 0.312783 -0.110154
0.0952978 0.188871 -0.110154
0.00042132 0.188871 -0.110154
0.00042132 0.312783 0.110154
0.00042132 0.312783 -0.110154
0.00042132 0.188871 0.110154
0.249087 0.165672 0.110154
0.367258 0.320917 0.110154
0.367258 0.320917 -0.110154
0.249087 0.165672 -0.110154
0.265361 0.1066 0.110154
0.35957 0.144443 0.110154
0.35957 0.144443 -0.110154
0.265361 0.1066 -0.110154
0.265361 0.000225884 -0.110154
0.35957 0.000225884 0.110154
0.35957 0.000225884 -0.110154
0.265361 0.000225884 0.110154
0.265361 -0.118773 0.110154
0.35957 -0.161177 0.110154
0.35957 -0.161177 -0.110154
0.265361 -0.118773 -0.110154
0.367258 -0.320917 0.110154
0.249087 -0.188843 0.110154
0.249087 -0.188843 -0.110154
0.367258 -0.320917 -0.110154
0.162028 -0.313044 0.110154
0.10963 -0.210923 0.110154
0.10963 -0.210923 -0.110154
0.162028 -0.313044 -0.110154
0.00042132 -0.313044 0.110154
0.00042132 -0.210923 0.110154
0.00042132 -0.313044 -0.110154
0.00042132 -0.210923 -0.110154
-0.151112 -0.313044 0.110154
-0.101715 -0.210923 0.110154
-0.101715 -0.210923 -0.110154
-0.151112 -0.313044 -0.110154
-0.367258 -0.320917 0.110154
-0.242136 -0.188843 0.110154
-0.242136 -0.188843 -0.110154
-0.367258 -0.320917 -0.110154
-0.357911 -0.143765 0.110154
-0.261482 -0.10503 0.110154
-0.261482 -0.10503 -0.110154
-0.357911 -0.143765 -0.110154
-0.357911 0.000225884 0.110154
-0.261482 0.000225884 0.110154
-0.357911 0.000225884 -0.110154
-0.261482 0.000225884 -0.110154
-0.357911 0.161757 0.110154
-0.261482 0.118355 0.110154
-0.261482 0.118355 -0.110154
-0.357911 0.161757 -0.110154
3 0 1 2
3 3 0 2
3 3 2 4
3 3 4 5
3 6 1 0
3 6 0 7
3 7 5 4
3 7 4 6
3 10 9 8
3 10 11 9
3 7 3 5
3 7 0 3
3 12 9 11
3 12 13 9
3 14 8 13
3 8 9 13
3 10 8 15
3 8 14 15
3 11 10 12
3 10 15 12
3 12 1 6
3 15 1 12
3 14 13 6
3 13 12 6
3 4 14 6
3 2 15 4
3 4 15 14
3 2 1 15
3 16 17 18
3 19 16 18
3 20 21 22
3 20 22 23
3 24 25 26
3 27 24 26
3 28 29 30
3 28 31 29
3 32 33 34
3 35 32 34
3 36 37 38
3 39 36 38
3 40 41 42
3 40 43 41
3 44 45 46
3 47 44 46
3 48 49 50
3 48 50 51
3 52 53 54
3 52 54 55
3 56 57 58
3 57 59 58
3 60 61 62
3 60 62 63
3 64 65 66
3 67 64 66
3 68 69 70
3 71 68 70
3 72 73 74
3 73 75 74
3 76 77 78
3 79 76 78
