ply
format ascii 1.0
comment Generated by the CGAL library
element vertex 20
property double x
property double y
property double z
element face 28
property list uchar int vertex_indices
end_header
-0.171454 0.433054 0.105085
0.226762 0.433054 -0.105085
0.226762 0.433054 0.105085
-0.171454 0.433054 -0.105085
-0.166389 -0.363379 0.105085
-0.226762 -0.279965 0.105085
-0.171454 -0.254091 0.105085
-0.166389 -0.433054 0.105085
-0.226762 -0.433054 0.105085
0.226762 -0.363379 0.105085
0.226762 -0.363379 -0.105085
-0.171454 -0.254091 -0.105085
-0.226762 -0.279965 0.105085
-0.171454 -0.254091 0.105085
-0.171454 -0.254091 -0.105085
-0.226762 -0.279965 -0.105085
-0.226762 -0.433054 -0.105085
-0.226762 -0.279965 -0.105085
-0.166389 -0.433054 -0.105085
-0.166389 -0.363379 -0.105085
3 0 1 2
3 0 3 1
3 4 5 6
3 7 8 4
3 8 5 4
3 6 0 2
3 9 6 2
3 9 4 6
3 9 2 1
3 9 1 10
3 3 0 6
3 11 3 6
3 12 13 14
3 12 14 15
3 16 5 8
3 16 17 5
3 16 7 18
3 16 8 7
3 18 4 19
3 18 7 4
3 11 17 19
3 19 16 18
3 19 17 16
3 1 3 11
3 1 11 10
3 11 19 10
3 10 4 9
3 10 19 4
