ply
format ascii 1.0
comment Generated by the CGAL library
element vertex 12
property double x
property double y
property double z
element face 20
property list uchar int vertex_indices
end_header
0.17639 0.208984 0.368119
0.17639 -0.254999 -0.368119
0.17639 -0.254999 0.368119
0.17639 0.208984 -0.368119
-0.222405 0.254999 0.368119
-0.222405 0.208984 0.368119
0.222405 0.254999 0.368119
0.222405 -0.254999 0.368119
-0.222405 0.208984 -0.368119
0.222405 -0.254999 -0.368119
0.222405 0.254999 -0.368119
-0.222405 0.254999 -0.368119
3 0 1 2
3 0 3 1
3 5 0 4
3 4 0 6
3 6 0 7
3 0 2 7
3 8 3 0
3 5 8 0
3 7 2 1
3 7 1 9
3 10 6 9
3 6 7 9
3 4 6 11
3 6 10 11
3 5 4 8
3 4 11 8
3 1 3 9
3 3 10 9
3 3 11 10
3 11 3 8
