ply
format ascii 1.0
comment Generated by the CGAL library
element vertex 32
property double x
property double y
property double z
element face 60
property list uchar int vertex_indices
end_header
0.352789 0.142757 0.237928
0.39217 -0.142757 0.237928
0.39217 0.142757 0.237928
-0.352789 0.182138 0.237928
-0.352789 0.142757 0.237928
-0.39217 0.142757 0.237928
-0.352789 -0.142757 0.237928
-0.39217 -0.142757 0.237928
0.352789 -0.142757 0.237928
0.352789 -0.182138 0.237928
-0.352789 -0.182138 0.237928
0.352789 0.182138 0.237928
-0.352789 -0.182138 -0.251055
-0.352789 -0.142757 -0.251055
0.39217 0.182138 0.251055
-0.39217 0.182138 0.251055
0.39217 -0.182138 0.251055
-0.39217 -0.182138 0.251055
0.39217 -0.182138 -0.251055
0.39217 -0.142757 -0.251055
0.39217 0.182138 -0.251055
0.39217 0.142757 -0.251055
-0.39217 0.182138 -0.251055
-0.352789 0.182138 -0.251055
0.352789 0.182138 -0.251055
-0.39217 -0.182138 -0.251055
-0.39217 0.142757 -0.251055
-0.39217 -0.142757 -0.251055
0.352789 -0.182138 -0.251055
0.352789 -0.142757 -0.251055
-0.352789 0.142757 -0.251055
0.352789 0.142757 -0.251055
3 0 1 2
3 0 3 4
3 5 6 4
3 5 7 6
3 8 6 9
3 6 10 9
3 4 8 0
3 4 6 8
3 0 8 1
3 11 3 0
3 12 6 13
3 12 10 6
3 16 15 14
3 16 17 15
3 18 1 19
3 16 1 18
3 2 14 20
3 2 1 16
3 14 2 16
3 20 21 2
3 20 14 11
3 3 22 23
3 3 15 22
3 3 11 15
3 15 11 14
3 20 11 24
3 7 17 25
3 26 22 5
3 22 15 5
3 17 7 5
3 17 5 15
3 27 7 25
3 9 16 18
3 12 25 10
3 25 17 10
3 17 9 10
3 16 9 17
3 28 9 18
3 27 6 7
3 27 13 6
3 27 25 12
3 13 27 12
3 28 8 9
3 28 29 8
3 29 19 1
3 8 29 1
3 18 19 29
3 28 18 29
3 4 3 30
3 3 23 30
3 5 4 26
3 4 30 26
3 30 22 26
3 30 23 22
3 31 11 0
3 31 24 11
3 31 2 21
3 31 0 2
3 21 20 24
3 31 21 24
