ply
format ascii 1.0
comment Generated by the CGAL library
element vertex 60
property double x
property double y
property double z
element face 100
property list uchar int vertex_indices
end_header
-0.223012 -0.390424 0.0861292
-0.223012 -0.390424 -0.218142
-0.223012 0.390424 -0.218142
-0.223012 0.390424 0.0861292
0.223012 -0.390424 0.217939
0.223012 -0.390424 -0.218142
0.223012 0.390424 -0.218142
0.223012 0.390424 0.217939
-0.0101461 -0.390626 0.218142
-0.223215 -0.390626 0.0862422
-0.223215 0.390626 0.0862422
-0.0101461 0.390626 0.218142
0.213069 0.390626 -0.218142
0.213069 0.390424 -0.218142
0.223215 0.390626 -0.218142
0.223215 -0.390626 -0.218142
0.213069 -0.390626 -0.218142
0.213069 -0.390424 -0.218142
0.212866 0.390424 -0.218142
0.212866 0.390626 -0.218142
-0.212866 0.390626 -0.218142
-0.212866 0.390424 -0.218142
0.0103491 -0.390424 -0.218142
0.0103491 -0.390626 -0.218142
0.212866 -0.390626 -0.218142
0.212866 -0.390424 -0.218142
-0.223215 0.390626 -0.218142
-0.223215 -0.390626 0.0862422
-0.223215 -0.390626 -0.218142
-0.223215 0.390626 0.0862422
0.0101461 -0.390424 -0.218142
0.0101461 -0.390424 0.207996
0.0103491 -0.390424 0.207996
0.212866 -0.390424 0.207996
-0.0100884 -0.390424 0.217939
0.213069 -0.390424 0.207996
0.0101461 -0.390626 -0.218142
-0.213069 0.390626 -0.218142
-0.213069 0.390424 -0.218142
0.0101461 -0.390626 0.207996
0.213069 -0.390626 0.207996
0.223215 -0.390626 0.218142
0.212866 -0.390626 0.207996
0.0103491 -0.390626 0.207996
-0.0101461 -0.390626 0.218142
-0.212866 0.390424 0.0760961
-0.0100884 0.390424 0.217939
0.213069 0.390424 0.207996
0.212866 0.390424 0.207996
-0.213069 0.390424 0.0760961
-0.0100884 -0.390424 0.217939
-0.223012 0.390424 0.0861292
-0.0100884 0.390424 0.217939
-0.223012 -0.390424 0.0861292
0.213069 0.390626 0.207996
0.223215 0.390626 0.218142
-0.212866 0.390626 0.0760961
-0.0101461 0.390626 0.218142
0.212866 0.390626 0.207996
-0.213069 0.390626 0.0760961
3 0 1 2
3 3 0 2
3 6 5 4
3 7 6 4
3 8 9 10
3 11 8 10
3 12 6 13
3 14 6 12
3 5 6 14
3 15 5 14
3 16 5 15
3 5 16 17
3 20 19 18
3 20 18 21
3 24 23 22
3 24 22 25
3 28 27 26
3 27 29 26
3 1 0 30
3 0 31 30
3 32 33 22
3 22 33 25
3 32 31 34
3 33 32 4
3 35 5 17
3 35 4 5
3 35 33 4
3 32 34 4
3 31 0 34
3 28 1 36
3 2 37 38
3 2 26 37
3 2 1 28
3 26 2 28
3 1 30 36
3 27 28 36
3 27 36 39
3 40 16 15
3 42 40 41
3 40 15 41
3 43 42 41
3 42 23 24
3 44 43 41
3 43 23 42
3 27 39 44
3 39 43 44
3 3 45 46
3 47 13 6
3 7 47 6
3 46 48 7
3 7 48 47
3 46 18 48
3 45 21 18
3 46 45 18
3 3 49 45
3 3 2 49
3 49 2 38
3 33 42 24
3 25 33 24
3 22 23 32
3 23 43 32
3 17 16 35
3 16 40 35
3 50 51 52
3 50 53 51
3 42 33 40
3 33 35 40
3 4 34 7
3 34 46 7
3 55 14 54
3 57 56 29
3 14 12 54
3 55 58 57
3 54 58 55
3 58 19 57
3 57 19 56
3 29 56 59
3 56 19 20
3 29 59 26
3 59 37 26
3 44 55 57
3 44 41 55
3 14 55 41
3 14 41 15
3 43 39 32
3 39 31 32
3 31 36 30
3 31 39 36
3 59 38 37
3 59 49 38
3 56 20 21
3 45 56 21
3 49 59 45
3 59 56 45
3 54 13 47
3 54 12 13
3 18 19 58
3 18 58 48
3 47 58 54
3 47 48 58
