ply
format ascii 1.0
comment Generated by the CGAL library
element vertex 16
property double x
property double y
property double z
element face 28
property list uchar int vertex_indices
end_header
-0.186281 -0.201487 -0.380165
-0.25471 -0.201487 -0.380165
-0.186281 -0.201487 0.380165
-0.25471 -0.201487 0.380165
-0.186281 0.133058 0.380165
0.186281 0.133058 0.380165
0.25471 -0.201487 0.380165
0.25471 0.201487 0.380165
0.186281 -0.201487 0.380165
-0.25471 0.201487 0.380165
-0.25471 0.201487 -0.380165
-0.186281 0.133058 -0.380165
0.186281 0.133058 -0.380165
0.186281 -0.201487 -0.380165
0.25471 -0.201487 -0.380165
0.25471 0.201487 -0.380165
3 0 1 2
3 1 3 2
3 4 2 3
3 7 6 5
3 6 8 5
3 7 5 9
3 5 4 9
3 4 3 9
3 9 3 1
3 9 1 10
3 0 2 4
3 11 0 4
3 11 5 12
3 11 4 5
3 13 5 8
3 13 12 5
3 13 6 14
3 13 8 6
3 14 7 15
3 14 6 7
3 10 7 9
3 10 15 7
3 12 15 10
3 1 0 11
3 10 1 11
3 13 14 12
3 14 15 12
3 12 10 11
