ply
format ascii 1.0
comment Generated by the CGAL library
element vertex 22
property double x
property double y
property double z
element face 44
property list uchar int vertex_indices
end_header
-0.0952926 0.0649722 3.84713e-17
0.0952926 0.0649722 3.84713e-17
-0.0952926 0.194917 3.84713e-17
0.0952926 0.194917 3.84713e-17
0.303204 0.194917 0.346518
-0.303204 0.194917 0.346518
0.303204 0.0649722 0.346518
-0.303204 0.0649722 0.346518
0.303204 0.194917 -0.346518
-0.303204 0.194917 -0.346518
-0.0952926 0.194917 -0.190585
0.0952926 0.194917 -0.190585
-0.0952926 -0.194917 -0.190585
-0.0952926 -0.194917 3.84713e-17
-0.303204 -0.194917 3.84713e-17
-0.303204 0.0649722 3.84713e-17
-0.303204 -0.194917 -0.346518
0.303204 -0.194917 -0.346518
0.303204 0.0649722 3.84713e-17
0.303204 -0.194917 3.84713e-17
0.0952926 -0.194917 3.84713e-17
0.0952926 -0.194917 -0.190585
3 0 1 2
3 1 3 2
3 6 5 4
3 6 7 5
3 8 4 3
3 10 2 9
3 5 2 3
3 11 9 8
3 2 5 9
3 5 3 4
3 3 11 8
3 11 10 9
3 10 0 2
3 10 12 0
3 12 13 0
3 0 13 14
3 15 0 14
3 14 16 15
3 5 15 9
3 7 15 5
3 15 16 9
3 9 16 17
3 9 17 8
3 18 17 19
3 8 18 4
3 4 18 6
3 8 17 18
3 20 18 19
3 20 1 18
3 3 1 11
3 1 21 11
3 1 20 21
3 11 21 12
3 11 12 10
3 17 16 21
3 21 20 19
3 21 19 17
3 21 16 12
3 14 13 12
3 14 12 16
3 7 0 15
3 7 1 0
3 7 6 1
3 6 18 1
