ply
format ascii 1.0
comment Generated by the CGAL library
element vertex 16
property double x
property double y
property double z
element face 28
property list uchar int vertex_indices
end_header
-0.197311 0.286998 0.358748
-0.197311 -0.286998 -0.358748
-0.197311 -0.286998 0.358748
-0.197311 0.286998 -0.358748
0.197311 -0.286998 0.358748
0.197311 -0.286998 -0.358748
0.197311 0.286998 0.358748
0.197311 0.286998 -0.358748
-0.152795 0.210713 0.358748
-0.152795 -0.219784 0.358748
0.159865 0.210713 0.358748
0.159865 -0.219784 0.358748
-0.152795 -0.219784 -0.286998
-0.152795 0.210713 -0.286998
0.159865 -0.219784 -0.286998
0.159865 0.210713 -0.286998
3 0 1 2
3 0 3 1
3 4 2 1
3 4 1 5
3 6 4 5
3 6 5 7
3 3 0 6
3 7 3 6
3 1 3 7
3 1 7 5
3 6 0 8
3 8 2 9
3 6 8 10
3 8 0 2
3 9 2 4
3 10 11 4
3 11 9 4
3 6 10 4
3 12 8 9
3 12 13 8
3 12 11 14
3 12 9 11
3 11 10 14
3 10 15 14
3 15 10 13
3 10 8 13
3 15 13 12
3 15 12 14
