ply
format ascii 1.0
comment Generated by the CGAL library
element vertex 32
property double x
property double y
property double z
element face 52
property list uchar int vertex_indices
end_header
-0.0690422 0.086942 0.383568
-0.00767135 0.086942 0.444939
-0.00767135 -0.086942 0.444939
-0.0690422 -0.086942 0.383568
0.00767135 0.086942 0.444939
0.0690422 0.086942 0.383568
0.0690422 -0.086942 0.383568
0.00767135 -0.086942 0.444939
0.0030409 -0.117627 -0.475624
0.0030409 -0.117627 0.475624
0.0997276 -0.117627 0.475624
0.0997276 -0.117627 -0.475624
0.0030409 -0.107399 0.475624
-0.00718758 -0.107399 0.475624
-0.0997276 0.117627 0.475624
-0.0997276 -0.117627 0.475624
-0.00718758 -0.117627 0.475624
0.0997276 0.117627 0.475624
-0.0997276 -0.117627 -0.475624
-0.00718758 -0.117627 -0.475624
0.0997276 0.117627 -0.475624
-0.0997276 0.117627 -0.475624
0.0030409 -0.107399 -0.475624
-0.00718758 -0.107399 -0.475624
-0.00767135 -0.086942 0.444939
0.00767135 -0.086942 0.444939
-0.0690422 -0.086942 -0.475624
0.0690422 -0.086942 -0.475624
0.0690422 0.086942 -0.475624
-0.0690422 0.086942 -0.475624
-0.00767135 0.086942 0.444939
0.00767135 0.086942 0.444939
3 0 1 2
3 0 2 3
3 4 5 6
3 7 4 6
3 10 9 8
3 10 8 11
3 14 13 12
3 14 15 13
3 15 16 13
3 14 12 17
3 17 12 10
3 12 9 10
3 19 16 18
3 16 15 18
3 10 11 17
3 11 20 17
3 18 14 21
3 18 15 14
3 12 23 22
3 12 13 23
3 3 24 25
3 3 6 26
3 26 6 27
3 3 25 6
3 23 13 19
3 13 16 19
3 12 22 8
3 12 8 9
3 20 11 27
3 20 27 28
3 21 20 28
3 22 27 8
3 8 27 11
3 29 21 28
3 26 18 29
3 29 18 21
3 26 19 18
3 26 23 19
3 26 27 22
3 23 26 22
3 17 20 21
3 17 21 14
3 31 30 0
3 29 5 0
3 28 5 29
3 5 31 0
3 6 5 27
3 5 28 27
3 26 0 3
3 26 29 0
3 24 30 31
3 24 31 25
