ply
format ascii 1.0
comment Generated by the CGAL library
element vertex 40
property double x
property double y
property double z
element face 28
property list uchar int vertex_indices
end_header
0.167108 0.167108 -0.323498
0.167108 -0.167108 -0.323498
0.269582 -0.269582 0.323498
0.269582 0.269582 0.323498
0.269582 0.269582 0.323498
-0.269582 0.269582 0.323498
-0.167108 0.167108 -0.323498
-0.269582 0.269582 0.323498
-0.269582 -0.269582 0.323498
-0.167108 -0.167108 -0.323498
-0.255935 -0.255935 0.323498
-0.269582 0.269582 0.323498
-0.269582 -0.269582 0.323498
0.269582 -0.269582 0.323498
0.255935 -0.255935 0.323498
0.255935 0.255935 0.323498
0.269582 0.269582 0.323498
-0.255935 0.255935 0.323498
-0.255935 0.255935 0.323498
0.255935 0.255935 0.323498
0.155595 0.155595 -0.310019
-0.155595 0.155595 -0.310019
0.255935 -0.255935 0.323498
0.255935 0.255935 0.323498
0.155595 0.155595 -0.310019
0.155595 -0.155595 -0.310019
-0.255935 -0.255935 0.323498
-0.255935 0.255935 0.323498
-0.155595 0.155595 -0.310019
-0.155595 -0.155595 -0.310019
-0.255935 -0.255935 0.323498
0.255935 -0.255935 0.323498
0.155595 -0.155595 -0.310019
-0.155595 -0.155595 -0.310019
0.155595 -0.155595 -0.310019
-0.155595 0.155595 -0.310019
-0.155595 -0.155595 -0.310019
0.155595 0.155595 -0.310019
0.269582 -0.269582 0.323498
-0.269582 -0.269582 0.323498
3 0 1 2
3 3 0 2
3 5 0 4
3 5 6 0
3 8 6 7
3 8 9 6
3 10 11 12
3 13 14 12
3 15 16 11
3 12 14 10
3 13 16 15
3 17 15 11
3 14 13 15
3 10 17 11
3 1 0 6
3 1 6 9
3 18 19 20
3 21 18 20
3 22 23 24
3 25 22 24
3 26 27 28
3 29 26 28
3 30 31 32
3 33 30 32
3 34 35 36
3 34 37 35
3 38 1 39
3 1 9 39
