ply
format ascii 1.0
comment Generated by the CGAL library
element vertex 32
property double x
property double y
property double z
element face 64
property list uchar int vertex_indices
end_header
-0.325472 -0.325472 -0.195283
-0.325472 0.325472 -0.195283
-0.325472 -0.325472 0.195283
-0.325472 0.325472 0.195283
0.325472 -0.325472 -0.195283
0.325472 -0.325472 0.195283
0.325472 0.325472 -0.195283
0.325472 0.325472 0.195283
0.198538 -0.0416605 0.195283
0.198538 -0.0416605 -0.195283
0.198538 -0.198538 -0.195283
0.198538 -0.198538 0.195283
-0.198538 -0.0416605 0.195283
-0.198538 -0.198538 -0.195283
-0.198538 -0.198538 0.195283
-0.198538 -0.0416605 -0.195283
0.198538 0.198538 0.195283
0.198538 0.0416605 -0.195283
0.198538 0.0416605 0.195283
0.198538 0.198538 -0.195283
-0.198538 0.198538 0.195283
-0.198538 0.198538 -0.195283
-0.115217 -0.0416605 -0.195283
-0.115217 -0.0416605 0.195283
-0.115217 0.0416605 0.195283
-0.115217 0.0416605 -0.195283
-0.198538 0.0416605 -0.195283
-0.198538 0.0416605 0.195283
0.115217 0.0416605 -0.195283
0.115217 -0.0416605 -0.195283
0.115217 0.0416605 0.195283
0.115217 -0.0416605 0.195283
3 0 1 2
3 1 3 2
3 4 0 2
3 5 4 2
3 3 1 6
3 3 6 7
3 10 9 8
3 11 10 8
3 12 13 14
3 12 15 13
3 18 17 16
3 17 19 16
3 10 11 14
3 13 10 14
3 20 16 19
3 20 19 21
3 6 4 5
3 7 6 5
3 22 23 24
3 25 22 24
3 23 22 15
3 23 15 12
3 26 25 24
3 27 26 24
3 10 0 4
3 13 15 0
3 6 17 4
3 26 1 15
3 9 10 4
3 10 13 0
3 15 1 0
3 22 25 26
3 19 6 1
3 21 1 26
3 22 26 15
3 19 1 21
3 9 17 28
3 17 6 19
3 9 4 17
3 9 28 29
3 5 2 11
3 7 5 18
3 11 2 14
3 5 11 8
3 14 2 12
3 23 27 24
3 12 2 3
3 3 7 16
3 23 12 27
3 27 12 3
3 16 20 3
3 20 27 3
3 30 18 8
3 16 7 18
3 18 5 8
3 8 31 30
3 20 21 26
3 20 26 27
3 28 17 18
3 30 28 18
3 30 29 28
3 30 31 29
3 8 9 29
3 8 29 31
