ply
format ascii 1.0
comment Generated by the CGAL library
element vertex 14
property double x
property double y
property double z
element face 8
property list uchar int vertex_indices
end_header
-0.274761 -2.00309e-17 0.170541
-0.274761 -0.381342 -0.170541
0.274761 -0.381342 -0.170541
0.274761 -2.00309e-17 0.170541
0.274761 -1.12303e-17 0.170541
0.274761 -0.381342 -0.170541
0.274761 0.381342 -0.170541
-0.274761 0.381342 -0.170541
0.274761 7.55278e-18 0.170541
0.274761 0.381342 -0.170541
-0.274761 7.55278e-18 0.170541
-0.274761 -0.381342 -0.170541
-0.274761 0.381342 -0.170541
-0.274761 -1.12303e-17 0.170541
3 0 1 2
3 0 2 3
3 4 5 6
3 7 8 9
3 7 10 8
3 5 11 6
3 11 12 6
3 12 11 13
