ply
format ascii 1.0
comment Generated by the CGAL library
element vertex 16
property double x
property double y
property double z
element face 32
property list uchar int vertex_indices
end_header
0.218398 0.210042 -0.070014
-0.218398 0.210042 0.070014
-0.218398 0.210042 -0.070014
0.218398 0.210042 0.070014
0.35007 -0.35007 -0.070014
0.218398 -0.210042 -0.070014
0.35007 0.35007 -0.070014
-0.218398 -0.210042 -0.070014
-0.35007 -0.35007 -0.070014
-0.35007 0.35007 -0.070014
-0.35007 -0.35007 0.070014
-0.35007 0.35007 0.070014
0.218398 -0.210042 0.070014
-0.218398 -0.210042 0.070014
0.35007 0.35007 0.070014
0.35007 -0.35007 0.070014
3 0 1 2
3 0 3 1
3 5 0 4
3 4 0 6
3 5 8 7
3 4 8 5
3 7 9 2
3 8 9 7
3 9 0 2
3 6 0 9
3 11 9 10
3 9 8 10
3 12 3 0
3 5 12 0
3 13 5 7
3 13 12 5
3 14 6 11
3 6 9 11
3 15 6 14
3 15 4 6
3 8 4 10
3 4 15 10
3 2 1 13
3 2 13 7
3 15 14 3
3 15 3 12
3 10 12 13
3 1 11 13
3 13 11 10
3 1 3 11
3 11 3 14
3 10 15 12
