ply
format ascii 1.0
comment Generated by the CGAL library
element vertex 32
property double x
property double y
property double z
element face 60
property list uchar int vertex_indices
end_header
0.400892 0.200446 0.133631
0.334077 0.200446 -0.0668153
0.334077 0.200446 0.133631
0.400892 0.200446 -0.0668153
0.334077 0.267261 0.133631
0.400892 0.267261 0.133631
0.334077 0.267261 -0.0668153
-0.334077 0.267261 -0.0668153
-0.334077 0.200446 -0.0668153
-0.334077 -0.200446 -0.0668153
0.334077 -0.200446 -0.0668153
-0.400892 0.200446 -0.0668153
-0.400892 -0.200446 -0.0668153
-0.334077 -0.267261 -0.0668153
0.334077 -0.267261 -0.0668153
0.400892 -0.200446 -0.0668153
-0.400892 -0.267261 -0.133631
-0.400892 -0.267261 0.133631
0.400892 -0.267261 0.133631
0.334077 -0.267261 0.133631
0.400892 -0.267261 -0.133631
-0.334077 -0.267261 0.133631
-0.400892 0.267261 -0.133631
0.400892 0.267261 -0.133631
-0.400892 -0.200446 0.133631
-0.400892 0.267261 0.133631
-0.400892 0.200446 0.133631
-0.334077 0.267261 0.133631
0.400892 -0.200446 0.133631
-0.334077 0.200446 0.133631
0.334077 -0.200446 0.133631
-0.334077 -0.200446 0.133631
3 0 1 2
3 0 3 1
3 4 0 2
3 4 5 0
3 4 2 1
3 4 1 6
3 6 1 7
3 7 1 8
3 8 10 9
3 8 9 11
3 11 9 12
3 14 13 9
3 10 14 9
3 1 15 10
3 1 3 15
3 1 10 8
3 17 13 16
3 19 18 14
3 18 20 14
3 16 13 14
3 16 14 20
3 21 13 17
3 16 20 22
3 20 23 22
3 17 12 24
3 16 12 17
3 11 12 16
3 22 11 16
3 25 11 22
3 11 25 26
3 7 22 6
3 5 4 6
3 23 5 6
3 27 25 7
3 25 22 7
3 22 23 6
3 5 3 0
3 5 23 3
3 23 20 3
3 18 15 20
3 28 15 18
3 15 3 20
3 27 7 8
3 29 27 8
3 8 11 29
3 11 26 29
3 29 26 25
3 27 29 25
3 30 19 14
3 10 30 14
3 30 10 28
3 10 15 28
3 30 18 19
3 30 28 18
3 13 21 31
3 13 31 9
3 31 12 9
3 31 24 12
3 24 21 17
3 24 31 21
