ply
format ascii 1.0
comment Generated by the CGAL library
element vertex 16
property double x
property double y
property double z
element face 28
property list uchar int vertex_indices
end_header
0.0980581 0.392232 0.198077
0.0980581 0.392232 0.294174
0.0980581 -0.392232 0.294174
0.0980581 -0.392232 0.198077
-0.00392232 -0.392232 -0.198077
-0.0980581 -0.392232 -0.294174
-0.00392232 -0.392232 0.198077
-0.0980581 -0.392232 0.294174
0.0980581 -0.392232 -0.198077
0.0980581 -0.392232 -0.294174
-0.00392232 0.392232 0.198077
-0.0980581 0.392232 0.294174
-0.0980581 0.392232 -0.294174
0.0980581 0.392232 -0.294174
0.0980581 0.392232 -0.198077
-0.00392232 0.392232 -0.198077
3 0 1 2
3 0 2 3
3 6 5 4
3 6 3 2
3 6 2 7
3 4 9 8
3 4 5 9
3 6 7 5
3 0 3 6
3 10 0 6
3 7 2 1
3 7 1 11
3 12 5 7
3 12 7 11
3 9 5 13
3 5 12 13
3 8 9 13
3 8 13 14
3 15 4 14
3 4 8 14
3 6 4 15
3 6 15 10
3 15 12 10
3 1 0 10
3 11 1 10
3 14 13 15
3 13 12 15
3 12 11 10
