ply
format ascii 1.0
comment Generated by the CGAL library
element vertex 16
property double x
property double y
property double z
element face 32
property list uchar int vertex_indices
end_header
-0.35007 -0.35007 0.070014
-0.35007 0.35007 -0.070014
-0.35007 0.35007 0.070014
-0.35007 -0.35007 -0.070014
0.35007 -0.35007 -0.070014
0.35007 -0.35007 0.070014
0.35007 0.35007 -0.070014
0.35007 0.35007 0.070014
-0.210042 -0.210042 -0.070014
0.210042 -0.210042 -0.070014
-0.210042 -0.210042 0.070014
0.210042 -0.210042 0.070014
-0.210042 0.210042 -0.070014
-0.210042 0.210042 0.070014
0.210042 0.210042 -0.070014
0.210042 0.210042 0.070014
3 0 1 2
3 0 3 1
3 4 3 0
3 5 4 0
3 2 1 6
3 2 6 7
3 8 9 10
3 9 11 10
3 12 8 10
3 13 12 10
3 14 12 13
3 15 14 13
3 11 9 14
3 11 14 15
3 9 3 4
3 14 4 6
3 1 12 14
3 8 3 9
3 1 3 8
3 1 8 12
3 4 14 9
3 6 1 14
3 5 0 11
3 0 10 11
3 10 0 2
3 5 15 7
3 10 2 13
3 11 15 5
3 15 2 7
3 13 2 15
3 6 4 5
3 7 6 5
