ply
format ascii 1.0
comment Generated by the CGAL library
element vertex 16
property double x
property double y
property double z
element face 28
property list uchar int vertex_indices
end_header
0.20455 -0.141069 -3.94629e-17
-0.176336 0.141069 -3.94629e-17
-0.176336 -0.141069 -3.94629e-17
0.20455 0.141069 -3.94629e-17
0.38794 -0.141069 0.282138
0.38794 -0.141069 -0.282138
-0.38794 -0.141069 -0.282138
-0.176336 -0.141069 -0.282138
-0.38794 -0.141069 0.282138
0.20455 -0.141069 -0.282138
-0.176336 0.141069 -0.282138
0.20455 0.141069 -0.282138
0.38794 0.141069 -0.282138
0.38794 0.141069 0.282138
-0.38794 0.141069 0.282138
-0.38794 0.141069 -0.282138
3 0 1 2
3 0 3 1
3 5 0 4
3 7 6 2
3 6 8 2
3 4 0 2
3 4 2 8
3 9 0 5
3 7 2 10
3 2 1 10
3 11 0 9
3 11 3 0
3 12 9 5
3 12 11 9
3 5 4 13
3 12 5 13
3 14 4 8
3 14 13 4
3 14 8 6
3 15 14 6
3 10 6 7
3 10 15 6
3 13 3 12
3 1 15 10
3 1 14 15
3 1 3 13
3 14 1 13
3 12 3 11
