ply
format ascii 1.0
comment Generated by the CGAL library
element vertex 32
property double x
property double y
property double z
element face 36
property list uchar int vertex_indices
end_header
0 0.468962 -0.0951529
-0.144984 0.323979 -0.0951529
-0.144984 0.323979 0.0951529
0 0.468962 0.0951529
0.144984 0.323979 0.0951529
0.0792941 -0.222024 0.0951529
0.0792941 0.222024 0.0951529
-0.0792941 0.222024 0.0951529
-0.144984 0.323979 0.0951529
-2.77273e-18 0.468962 0.0951529
-2.77273e-18 -0.468962 0.0951529
0.144984 -0.323979 0.0951529
-0.0792941 -0.222024 0.0951529
-0.144984 -0.323979 0.0951529
0.144984 0.323979 0.0951529
0.144984 0.323979 -0.0951529
0.144984 0.323979 -0.0951529
0.144984 -0.323979 -0.0951529
0 -0.468962 0.0951529
0.144984 -0.323979 0.0951529
0.144984 -0.323979 -0.0951529
0 -0.468962 -0.0951529
-0.144984 -0.323979 0.0951529
-0.144984 -0.323979 -0.0951529
-0.144984 0.323979 -0.0951529
-0.144984 -0.323979 -0.0951529
-0.0792941 -0.222024 0.0634353
-0.0792941 0.222024 0.0634353
0.0792941 0.222024 0.0634353
0.0792941 -0.222024 0.0634353
-2.77273e-18 0.468962 -0.0951529
-2.77273e-18 -0.468962 -0.0951529
3 0 1 2
3 3 0 2
3 4 5 6
3 7 8 9
3 10 5 11
3 12 13 7
3 7 13 8
3 7 9 6
3 9 4 6
3 4 11 5
3 5 10 12
3 10 13 12
3 14 0 3
3 14 15 0
3 16 11 4
3 16 17 11
3 18 19 20
3 21 18 20
3 23 22 18
3 21 23 18
3 24 8 13
3 25 24 13
3 26 27 28
3 26 28 29
3 16 30 24
3 25 16 24
3 31 17 25
3 17 16 25
3 6 28 7
3 28 27 7
3 12 29 5
3 12 26 29
3 12 27 26
3 12 7 27
3 5 28 6
3 5 29 28
