ply
format ascii 1.0
comment Generated by the CGAL library
element vertex 48
property double x
property double y
property double z
element face 76
property list uchar int vertex_indices
end_header
-0.213116 0.213594 0.117662
0.213116 0.207349 0.117662
0.213116 0.213594 0.117662
-0.213116 0.207349 0.117662
0.213116 -0.213594 -0.398697
-0.140075 -0.0873892 -0.398697
-0.213116 -0.213594 -0.398697
-0.140075 0.000263059 -0.398697
-0.213116 0.213594 -0.398697
-0.213116 0.000263059 -0.398697
0.213116 0.213594 -0.398697
-0.213116 -0.0873892 -0.398697
0.213116 -0.213594 0.117662
-0.213116 -0.213594 0.117662
-0.213116 -0.206823 0.117662
0.213116 -0.206823 0.117662
-0.213116 0.000263059 -0.215411
-0.213116 0.0877681 0.0360677
-0.213116 -0.087242 0.0360677
-0.213116 0.0877681 0.176145
-0.213116 -0.0873892 -0.215411
-0.213116 -0.087242 0.176145
-0.213116 -0.0379598 0.398697
-0.213116 0.0384859 0.398697
0.0697478 0.213594 0.0251724
0.0697478 0.213594 -0.100773
-0.0716059 0.213594 -0.100773
-0.0716059 0.213594 0.0251724
0.213116 0.0384859 0.398697
0.213116 -0.0379598 0.398697
-0.213116 0.0384859 0.398697
0.213116 0.207349 0.117662
0.213116 0.0384859 0.398697
-0.213116 0.207349 0.117662
-0.213116 -0.0379598 0.398697
-0.213116 -0.206823 0.117662
0.213116 -0.206823 0.117662
0.213116 -0.0379598 0.398697
-0.140075 -0.0873892 -0.215411
-0.140075 0.000263059 -0.215411
0.0790504 0.0877681 0.0360677
0.0790504 0.0877681 0.176145
0.0790504 -0.087242 0.0360677
0.0790504 -0.087242 0.176145
0.0697478 -0.078573 0.0251724
0.0697478 -0.078573 -0.100773
-0.0716059 -0.078573 -0.100773
-0.0716059 -0.078573 0.0251724
3 0 1 2
3 0 3 1
3 6 5 4
3 9 8 7
3 8 10 7
3 4 5 7
3 4 7 10
3 11 5 6
3 13 6 12
3 6 4 12
3 13 12 14
3 12 15 14
3 17 8 16
3 18 17 16
3 3 17 19
3 0 17 3
3 8 17 0
3 18 16 20
3 16 8 9
3 18 13 14
3 20 11 6
3 20 13 18
3 6 13 20
3 18 14 21
3 23 19 22
3 22 19 21
3 21 14 22
3 19 23 3
3 24 2 25
3 25 10 8
3 26 25 8
3 2 10 25
3 0 26 8
3 0 27 26
3 0 2 24
3 27 0 24
3 10 2 1
3 10 1 15
3 10 15 4
3 29 1 28
3 15 1 29
3 4 15 12
3 30 31 32
3 30 33 31
3 34 35 36
3 37 34 36
3 23 22 29
3 23 29 28
3 38 11 20
3 38 5 11
3 20 16 39
3 20 39 38
3 39 16 9
3 7 39 9
3 7 5 39
3 5 38 39
3 19 17 40
3 41 19 40
3 42 17 18
3 42 40 17
3 42 18 21
3 42 21 43
3 43 21 19
3 43 19 41
3 43 41 40
3 43 40 42
3 24 25 44
3 25 45 44
3 46 45 25
3 26 46 25
3 47 26 27
3 47 46 26
3 24 44 47
3 24 47 27
3 47 44 45
3 47 45 46
