ply
format ascii 1.0
comment Generated by the CGAL library
element vertex 24
property double x
property double y
property double z
element face 44
property list uchar int vertex_indices
end_header
0.303176 0.16502 0.0989082
0.303176 -0.16502 0.0989082
0.303176 0.16502 -0.221805
0.303176 -0.16502 -0.221805
0.303176 -0.16502 0.221805
0.303176 -0.16502 0.146176
0.303176 0.16502 0.146176
0.303176 0.16502 0.221805
-0.303176 0.16502 0.0989082
-0.303176 0.16502 -0.221805
-0.416619 0.16502 0.146176
-0.416619 0.16502 0.0989082
-0.303176 0.16502 0.146176
-0.303176 0.16502 0.221805
0.416619 0.16502 0.0989082
0.416619 0.16502 0.146176
-0.303176 -0.16502 0.221805
-0.303176 -0.16502 0.146176
-0.303176 -0.16502 0.0989082
-0.303176 -0.16502 -0.221805
-0.416619 -0.16502 0.146176
-0.416619 -0.16502 0.0989082
0.416619 -0.16502 0.0989082
0.416619 -0.16502 0.146176
3 0 1 2
3 1 3 2
3 4 5 6
3 7 4 6
3 8 0 2
3 9 8 2
3 11 10 8
3 12 0 8
3 10 12 8
3 13 6 12
3 7 6 13
3 6 0 12
3 14 0 6
3 14 6 15
3 13 12 16
3 12 17 16
3 3 1 18
3 3 18 19
3 18 20 21
3 18 1 17
3 18 17 20
3 17 5 16
3 16 5 4
3 17 1 5
3 5 1 22
3 23 5 22
3 9 19 18
3 8 9 18
3 2 3 9
3 3 19 9
3 13 16 4
3 13 4 7
3 6 5 15
3 5 23 15
3 1 0 14
3 22 1 14
3 23 22 14
3 23 14 15
3 20 17 12
3 10 20 12
3 18 21 8
3 21 11 8
3 11 21 20
3 11 20 10
