ply
format ascii 1.0
comment Generated by the CGAL library
element vertex 40
property double x
property double y
property double z
element face 64
property list uchar int vertex_indices
end_header
-0.0501761 -0.0557512 -0.0613263
-0.0613263 -0.0557512 -0.0613263
-0.0613263 -0.0557512 -0.0892019
-0.0223005 -0.0557512 -0.0892019
-0.0613263 0.0557512 -0.0892019
-0.0613263 0.0557512 -0.0613263
-0.0501761 0.0557512 -0.0613263
-0.0223005 0.0557512 -0.0892019
-0.0501761 -0.147741 -0.0613263
-0.418134 -0.147741 -0.0613263
-0.418134 0.147741 -0.0613263
-0.0501761 0.147741 -0.0613263
-0.0501761 -0.0557512 -0.0613263
-0.0223005 -0.0557512 -0.0892019
-0.0223005 -0.147741 -0.0892019
-0.0501761 -0.147741 -0.0613263
-0.0223005 0.0557512 -0.0892019
-0.0501761 0.0557512 -0.0613263
-0.0501761 0.147741 -0.0613263
-0.0223005 0.147741 -0.0892019
0.0167254 -0.147741 -0.0613263
0.418134 -0.147741 -0.0613263
0.0167254 0.147741 -0.0613263
0.418134 0.147741 -0.0613263
0.418134 -0.259243 0.0892019
0.418134 -0.259243 -0.0892019
0.418134 0.259243 0.0892019
0.418134 0.147741 0.0892019
0.418134 0.259243 -0.0892019
0.418134 -0.147741 0.0892019
0.0167254 0.147741 -0.0892019
0.0167254 -0.147741 -0.0892019
-0.0223005 -0.147741 -0.0892019
-0.418134 -0.147741 0.0892019
-0.418134 -0.259243 0.0892019
-0.418134 -0.259243 -0.0892019
-0.418134 0.259243 0.0892019
-0.418134 0.147741 0.0892019
-0.418134 0.259243 -0.0892019
-0.0223005 0.147741 -0.0892019
3 0 1 2
3 0 2 3
3 4 2 1
3 4 1 5
3 7 4 6
3 4 5 6
3 8 1 0
3 8 9 1
3 9 10 1
3 11 5 10
3 6 5 11
3 5 1 10
3 12 13 14
3 15 12 14
3 16 17 18
3 19 16 18
3 22 21 20
3 22 23 21
3 21 25 24
3 27 26 23
3 26 28 23
3 25 21 23
3 25 23 28
3 29 21 24
3 30 22 20
3 31 30 20
3 31 20 32
3 20 8 32
3 33 8 20
3 29 33 20
3 29 20 21
3 33 9 8
3 34 24 25
3 35 34 25
3 36 26 27
3 36 27 37
3 28 26 36
3 38 28 36
3 34 35 9
3 10 36 37
3 10 38 36
3 10 9 35
3 38 10 35
3 34 9 33
3 37 11 10
3 37 22 11
3 27 23 22
3 27 22 37
3 39 11 22
3 39 22 30
3 33 29 24
3 34 33 24
3 4 7 39
3 30 25 28
3 31 25 30
3 35 2 38
3 2 4 38
3 39 30 38
3 4 39 38
3 30 28 38
3 2 32 3
3 35 25 31
3 35 32 2
3 35 31 32
