ply
format ascii 1.0
comment Generated by the CGAL library
element vertex 46
property double x
property double y
property double z
element face 24
property list uchar int vertex_indices
end_header
0.165567 0.374634 0.165567
0.165567 0.155179 0.165567
0.234146 0.374634 -3.98714e-17
0.234146 -0.374634 -2.08524e-18
0.165567 0.374634 0.165567
0.165567 0.155179 0.165567
3.61226e-18 0.374634 0.234146
-0.165567 0.374634 -0.165567
-3.61226e-18 0.374634 -0.234146
-0.165567 0.155179 -0.165567
0.234146 0.374634 -1.58419e-18
0.165567 0.374634 0.165567
0 0.374634 0.234146
0 0.374634 -0.234146
0.165567 0.374634 -0.165567
-0.234146 0.374634 -1.58419e-18
-0.165567 0.374634 -0.165567
-0.165567 0.374634 0.165567
-0.165567 0.155179 -0.165567
-0.165567 0.374634 -0.165567
-0.234146 0.374634 -3.8297e-17
-0.234146 -0.374634 -3.65966e-18
3.61226e-18 0.374634 -0.234146
0.165567 0.374634 -0.165567
0.165567 0.155179 -0.165567
0.234146 0.374634 -3.8297e-17
0.234146 -0.374634 -3.65966e-18
0.165567 0.155179 -0.165567
0.165567 0.374634 -0.165567
-0.165567 0.374634 0.165567
-3.61226e-18 0.374634 0.234146
-0.165567 0.155179 0.165567
-0.234146 0.374634 3.55926e-17
-0.165567 0.374634 0.165567
-0.165567 0.155179 0.165567
-0.234146 -0.374634 9.55283e-19
0.165567 0.155179 -0.165567
0.234146 -0.374634 -1.03141e-09
-0.234146 -0.374634 -1.03141e-09
-0.165567 0.155179 -0.165567
0 0.374634 -0.234146
-0.165567 0.155179 0.165567
0.234146 -0.374634 1.03141e-09
-0.234146 -0.374634 1.03141e-09
-3.28286e-26 0.374634 0.234146
0.165567 0.155179 0.165567
3 0 1 2
3 1 3 2
3 4 5 6
3 7 8 9
3 10 11 12
3 10 13 14
3 10 12 13
3 13 15 16
3 13 12 15
3 15 12 17
3 18 19 20
3 18 20 21
3 22 23 24
3 25 26 27
3 25 27 28
3 29 30 31
3 32 33 34
3 32 34 35
3 36 37 38
3 36 39 40
3 36 38 39
3 41 42 43
3 44 45 41
3 41 45 42
