ply
format ascii 1.0
comment Generated by the CGAL library
element vertex 16
property double x
property double y
property double z
element face 28
property list uchar int vertex_indices
end_header
-0.0675737 0.371656 -0.0675737
-0.0675737 0.371656 0.0675737
-0.0675737 0.101361 0.0675737
-0.0675737 0.101361 -0.0675737
0.0675737 0.371656 -0.0675737
0.0675737 0.101361 -0.0675737
0.0675737 0.101361 0.0675737
0.0675737 0.371656 0.0675737
-0.236508 0.101361 0.236508
-0.236508 0.101361 -0.236508
-0.236508 -0.371656 -0.236508
-0.236508 -0.371656 0.236508
0.236508 -0.371656 -0.236508
0.236508 0.101361 -0.236508
0.236508 0.101361 0.236508
0.236508 -0.371656 0.236508
3 0 1 2
3 0 2 3
3 4 0 3
3 5 4 3
3 6 4 5
3 6 7 4
3 2 1 7
3 2 7 6
3 1 0 4
3 7 1 4
3 10 9 8
3 10 8 11
3 9 10 12
3 13 9 12
3 14 12 15
3 14 13 12
3 15 11 8
3 15 8 14
3 8 2 6
3 3 9 5
3 5 13 6
3 3 2 8
3 14 8 6
3 9 3 8
3 13 5 9
3 14 6 13
3 12 10 11
3 15 12 11
