ply
format ascii 1.0
comment Generated by the CGAL library
element vertex 20
property double x
property double y
property double z
element face 40
property list uchar int vertex_indices
end_header
-0.267261 -0.133631 -0.400892
-0.267261 -0.133631 0.400892
-0.213809 -0.133631 0.400892
-0.213809 -0.133631 -0.400892
-0.267261 -0.0719473 -0.21083
-0.267261 -0.106904 -0.21083
-0.213809 -0.106904 -0.21083
-0.213809 -0.0719473 -0.21083
-0.267261 0.133631 -0.400892
0.267261 0.133631 0.400892
0.267261 0.133631 -0.400892
-0.267261 0.133631 0.400892
-0.267261 -0.106904 -0.292623
-0.267261 -0.0719473 -0.292623
-0.213809 1.8691e-17 0.400892
-0.213809 1.8691e-17 -0.400892
-0.213809 -0.0719473 -0.292623
-0.213809 -0.106904 -0.292623
0.267261 1.8691e-17 -0.400892
0.267261 1.8691e-17 0.400892
3 0 1 2
3 0 2 3
3 4 5 6
3 4 6 7
3 10 9 8
3 9 11 8
3 11 1 4
3 1 5 4
3 5 1 0
3 11 4 8
3 5 0 12
3 4 13 8
3 13 0 8
3 12 0 13
3 7 2 14
3 6 3 2
3 15 7 14
3 16 3 17
3 7 6 2
3 17 3 6
3 16 15 3
3 7 15 16
3 0 3 15
3 8 0 15
3 18 10 15
3 10 8 15
3 19 15 14
3 19 18 15
3 14 2 1
3 14 1 11
3 14 9 19
3 14 11 9
3 10 18 9
3 18 19 9
3 7 16 13
3 7 13 4
3 12 17 6
3 5 12 6
3 13 16 17
3 13 17 12
