ply
format ascii 1.0
comment Generated by the CGAL library
element vertex 54
property double x
property double y
property double z
element face 60
property list uchar int vertex_indices
end_header
-0.367607 -0.110282 -0.220564
-0.367607 -0.257325 -0.220564
0.367607 -0.257325 -0.220564
0.367607 -0.110282 -0.220564
0.323494 -0.110282 -0.110282
0.367607 -0.110282 -0.147043
-0.367607 -0.110282 -0.110282
-0.0735215 -0.183804 0.220564
-0.367607 -0.183804 0.220564
-0.0735215 -0.257325 0.220564
-0.367607 -0.257325 0.220564
-0.367607 0.257325 -0.220564
0.367607 0.110282 -0.220564
0.367607 0.257325 -0.220564
-0.367607 0.110282 -0.220564
0.367607 0.257325 -0.147043
0.367607 0.110282 -0.147043
-0.367607 0.257325 0.220564
-0.367607 0.183804 0.220564
-0.0735215 0.183804 0.220564
-0.0735215 0.257325 0.220564
0.367607 -0.257325 -0.147043
0.367607 -0.110282 -0.147043
0.323494 -0.110282 -0.110282
0.367607 -0.257325 -0.147043
0.191156 -0.0367607 -1.42497e-09
-0.0735215 -0.257325 0.220564
0.10293 -0.0367607 0.0735215
-0.0735215 -0.183804 0.220564
0.191156 0.0367607 -1.42497e-09
0.10293 0.0367607 0.0735215
-0.0735215 0.257325 0.220564
-0.0735215 0.183804 0.220564
0.367607 0.257325 -0.147043
0.323494 0.110282 -0.110282
0.367607 0.110282 -0.147043
-0.367607 0.110282 -0.110282
-0.367607 0.0367607 0
-0.367607 0.0367607 0.0735215
-0.367607 -0.0367607 0
-0.367607 -0.0367607 0.0735215
-0.0735215 0.183804 0.220564
-0.367607 0.183804 0.220564
-0.367607 0.0367607 0.0735215
0.10293 0.0367607 0.0735215
0.191156 0.0367607 0
0.10293 0.0367607 0.0735215
0.191156 -0.0367607 0
0.10293 -0.0367607 0.0735215
-0.367607 -0.0367607 0.0735215
-0.0735215 -0.183804 0.220564
0.10293 -0.0367607 0.0735215
-0.367607 -0.183804 0.220564
0.323494 0.110282 -0.110282
3 0 1 2
3 0 2 3
3 4 3 5
3 6 0 4
3 4 0 3
3 9 8 7
3 9 10 8
3 11 12 13
3 11 14 12
3 16 15 13
3 12 16 13
3 19 18 17
3 20 19 17
3 21 3 2
3 21 5 3
3 13 15 11
3 15 20 11
3 11 20 17
3 21 2 1
3 9 1 10
3 21 1 9
3 22 23 24
3 23 25 24
3 24 25 26
3 26 27 28
3 27 26 25
3 25 23 29
3 30 29 31
3 32 30 31
3 31 29 33
3 34 35 33
3 29 34 33
3 29 23 34
3 6 1 0
3 36 14 11
3 36 11 17
3 36 38 37
3 17 18 36
3 18 38 36
3 36 37 6
3 37 39 6
3 6 10 1
3 40 6 39
3 8 6 40
3 8 10 6
3 41 42 43
3 41 43 44
3 37 46 45
3 37 38 46
3 37 45 47
3 39 37 47
3 39 48 40
3 39 47 48
3 49 50 51
3 49 52 50
3 12 53 16
3 12 14 53
3 14 36 53
3 36 4 53
3 36 6 4
