ply
format ascii 1.0
comment Generated by the CGAL library
element vertex 20
property double x
property double y
property double z
element face 14
property list uchar int vertex_indices
end_header
2.36848e-16 2.477e-16 0.166667
-0.333333 -0.333333 0.0112308
0.333333 -0.333333 0.0112308
0.333333 -0.333333 0.0112308
2.37069e-16 2.36848e-16 0.166667
0.333333 0.333333 0.0112308
2.36848e-16 2.37069e-16 0.166667
-0.333333 0.333333 0.0112308
0.333333 -0.333333 0.0112308
-0.333333 -0.333333 0.0112308
0.333333 -0.333333 -0.166667
-0.333333 -0.333333 -0.166667
-0.333333 0.333333 -0.166667
-0.333333 0.333333 0.0112308
0.333333 0.333333 -0.166667
0.333333 0.333333 0.0112308
2.477e-16 2.36848e-16 0.166667
-0.333333 0.333333 0.0112308
-0.333333 -0.333333 0.0112308
0.333333 0.333333 0.0112308
3 0 1 2
3 3 4 5
3 6 19 7
3 8 9 10
3 9 11 10
3 12 11 9
3 12 9 13
3 12 10 11
3 12 14 10
3 12 13 14
3 13 15 14
3 15 8 14
3 8 10 14
3 16 18 17
