ply
format ascii 1.0
comment Generated by the CGAL library
element vertex 32
property double x
property double y
property double z
element face 28
property list uchar int vertex_indices
end_header
0.363803 -0.242536 -0.242536
-0.363803 -0.242536 -0.121268
-0.363803 -0.242536 -0.242536
0.363803 -0.242536 0.242536
0.121268 -0.242536 0.242536
0.121268 -0.121268 0.242536
-0.363803 -2.88864e-18 -0.121268
0.363803 -1.09891e-17 -0.121268
0.363803 -0.121268 0.242536
0.363803 3.36523e-18 -0.121268
0.363803 -0.121268 0.242536
0.363803 0.242536 -0.242536
0.363803 0.242536 0.242536
0.363803 0.121268 0.242536
0.121268 0.242536 0.242536
-0.363803 0.242536 -0.242536
-0.363803 0.242536 -0.121268
-0.363803 3.36523e-18 -0.121268
0.121268 0.121268 0.242536
0.121268 0.121268 0.242536
0.363803 1.09891e-17 -0.121268
0.363803 0.121268 0.242536
-0.363803 2.88864e-18 -0.121268
-0.363803 0.242536 -0.121268
-0.363803 3.36523e-18 -0.121268
0.121268 0.121268 0.242536
0.121268 0.242536 0.242536
0.121268 -0.121268 0.242536
-0.363803 -0.242536 -0.121268
0.121268 -0.242536 0.242536
0.121268 -0.121268 0.242536
-0.363803 3.36523e-18 -0.121268
3 0 1 2
3 3 4 0
3 0 4 1
3 5 6 7
3 8 5 7
3 10 3 9
3 9 0 11
3 3 0 9
3 13 9 12
3 12 9 11
3 14 12 11
3 16 11 15
3 14 11 16
3 15 2 17
3 2 1 17
3 15 17 16
3 13 12 14
3 13 14 18
3 19 20 21
3 19 22 20
3 23 24 25
3 23 25 26
3 11 0 15
3 0 2 15
3 27 3 10
3 27 4 3
3 28 29 30
3 28 30 31
