ply
format ascii 1.0
comment Generated by the CGAL library
element vertex 34
property double x
property double y
property double z
element face 26
property list uchar int vertex_indices
end_header
-0.0498567 0.0337565 0.191563
-0.334516 0.318438 0.187982
-0.0498567 0.318438 0.191563
-0.334516 0.0337565 0.187982
-0.329741 -0.318438 -0.191563
-0.0498567 0.0337565 0.191563
-0.0450822 -0.318438 -0.187982
-0.334516 0.0337565 0.187982
-0.0450822 -0.318438 -0.187982
-0.329741 -0.318438 -0.191563
-0.329741 0.0337565 -0.191563
-0.0450822 0.0337565 -0.187982
-0.0498567 0.318438 0.191563
-0.0498567 0.0337565 0.191563
-0.0498116 0.318438 0.187982
-0.0498116 0.0337565 0.187982
-0.0450822 -0.318438 -0.187982
-0.0450822 0.0337565 -0.187982
-0.0498567 0.318438 0.191563
-0.334516 0.318438 0.187982
-0.0498116 0.318438 0.187982
-0.329741 0.318438 -0.191563
-0.00238724 0.318438 0.187982
0.334516 0.318438 -0.191563
-0.00238724 0.0337565 0.187982
-0.0498116 0.0337565 0.187982
0.334516 0.0337565 -0.191563
-0.329741 0.0337565 -0.191563
-0.334516 0.318438 0.187982
-0.334516 0.0337565 0.187982
-0.329741 0.0337565 -0.191563
-0.329741 0.318438 -0.191563
-0.329741 -0.318438 -0.191563
-0.0450822 0.0337565 -0.187982
3 0 1 2
3 0 3 1
3 4 5 6
3 4 7 5
3 8 9 10
3 8 10 11
3 12 13 14
3 13 15 14
3 15 16 17
3 15 13 16
3 18 19 20
3 21 22 20
3 19 21 20
3 22 21 23
3 25 24 33
3 24 26 33
3 26 27 33
3 28 29 30
3 28 30 31
3 29 32 30
3 22 23 26
3 24 22 26
3 21 26 23
3 21 27 26
3 25 20 22
3 24 25 22
