ply
format ascii 1.0
comment Generated by the CGAL library
element vertex 32
property double x
property double y
property double z
element face 28
property list uchar int vertex_indices
end_header
-0.193888 0.311187 -0.166992
-0.193888 0.311187 -0.0116677
-0.193888 -0.311187 -0.0116677
-0.193888 -0.311187 -0.166992
0.193888 -0.311187 0.0111304
0.349482 -0.311187 -0.135047
0.349482 -0.311187 0.17614
-0.349482 -0.311187 -0.17614
-0.349482 -0.311187 0.135047
0.193888 -0.311187 -0.144194
-0.349482 0.311187 -0.17614
-0.193888 -0.311187 -0.166992
-0.349482 -0.311187 -0.17614
-0.193888 0.311187 -0.166992
-0.193888 -0.311187 -0.0116677
-0.193888 0.311187 -0.0116677
0.193888 -0.311187 0.0111304
0.193888 0.311187 0.0111304
0.193888 0.311187 -0.144194
0.193888 0.311187 0.0111304
0.349482 -0.311187 -0.135047
0.193888 -0.311187 -0.144194
0.193888 0.311187 -0.144194
0.349482 0.311187 -0.135047
0.349482 0.311187 -0.135047
0.349482 0.311187 0.17614
-0.349482 -0.311187 0.135047
0.349482 -0.311187 0.17614
0.349482 0.311187 0.17614
-0.349482 0.311187 0.135047
-0.349482 0.311187 -0.17614
-0.349482 0.311187 0.135047
3 0 1 2
3 0 2 3
3 4 5 6
3 3 2 7
3 2 8 7
3 2 4 8
3 5 4 9
3 6 8 4
3 10 11 12
3 10 13 11
3 14 15 16
3 15 17 16
3 18 9 4
3 18 4 19
3 20 21 22
3 20 22 23
3 6 5 24
3 6 24 25
3 26 27 28
3 26 28 29
3 30 7 8
3 30 8 31
3 25 24 19
3 30 1 0
3 30 31 1
3 31 19 1
3 18 19 24
3 19 31 25
