ply
format ascii 1.0
comment Generated by the CGAL library
element vertex 17
property double x
property double y
property double z
element face 30
property list uchar int vertex_indices
end_header
0.324164 -0.216109 0.114411
0.324164 -0.216109 0.16526
0.324164 -0.171616 0.16526
0.324164 -0.171616 0.114411
-0.419507 -0.171616 0.0254246
0.324164 -0.171616 0.0254246
-0.419507 0.216109 0.0254246
0.324164 0.216109 0.0254246
0.324164 0.216109 0.114411
0.419507 -0.216109 -0.16526
0.419507 -0.216109 0.114411
-0.419507 -0.216109 -0.16526
-0.419507 -0.216109 0.16526
-0.419507 0.216109 -0.16526
-0.419507 -0.171616 0.16526
0.419507 0.216109 -0.16526
0.419507 0.216109 0.114411
3 0 1 2
3 0 2 3
3 6 5 4
3 6 7 5
3 3 5 7
3 8 3 7
3 10 9 0
3 9 11 0
3 12 1 0
3 12 0 11
3 6 4 13
3 4 11 13
3 4 12 11
3 12 4 14
3 10 16 15
3 9 10 15
3 7 16 8
3 15 7 13
3 13 7 6
3 15 16 7
3 13 9 15
3 13 11 9
3 3 10 0
3 8 16 3
3 3 16 10
3 3 2 14
3 5 3 4
3 4 3 14
3 14 2 1
3 14 1 12
