ply
format ascii 1.0
comment Generated by the CGAL library
element vertex 42
property double x
property double y
property double z
element face 32
property list uchar int vertex_indices
end_header
-0.335301 0.229714 -0.0475635
0.00927007 0.229714 -0.0475635
-0.335301 -0.229714 -0.0475635
0.00927007 -0.229714 -0.0475635
-0.335301 -0.229714 0.0475635
0.00927007 -0.229714 0.0475635
0.0916525 -0.229714 -1.30577e-15
0.252919 -0.229714 0.291212
0.335301 -0.229714 0.243649
0.252919 -0.229714 -0.291212
0.335301 -0.229714 -0.243649
-0.335301 0.229714 0.0475635
0.252919 0.229714 -0.291212
0.00927007 -0.229714 -0.0475635
0.252919 -0.229714 -0.291212
0.00927007 0.229714 -0.0475635
0.335301 -0.229714 -0.243649
0.252919 -0.229714 -0.291212
0.252919 0.229714 -0.291212
0.335301 0.229714 -0.243649
0.0916525 -0.229714 -1.2982e-15
0.335301 -0.229714 -0.243649
0.335301 0.229714 -0.243649
0.0916525 0.229714 -1.2982e-15
0.335301 -0.229714 0.243649
0.0916525 -0.229714 -1.2982e-15
0.0916525 0.229714 -1.2982e-15
0.335301 0.229714 0.243649
0.252919 0.229714 0.291212
0.335301 0.229714 0.243649
0.335301 -0.229714 0.243649
0.252919 -0.229714 0.291212
0.00927007 0.229714 0.0475635
0.252919 -0.229714 0.291212
0.00927007 -0.229714 0.0475635
0.252919 0.229714 0.291212
0.00927007 0.229714 0.0475635
0.0916525 0.229714 -1.30577e-15
0.252919 0.229714 0.291212
0.335301 0.229714 0.243649
0.252919 0.229714 -0.291212
0.335301 0.229714 -0.243649
3 0 1 2
3 1 3 2
3 2 3 4
3 3 5 4
3 3 6 5
3 5 6 7
3 7 6 8
3 6 3 9
3 10 6 9
3 4 0 2
3 4 11 0
3 12 13 14
3 12 15 13
3 16 17 18
3 16 18 19
3 20 21 22
3 20 22 23
3 24 25 26
3 24 26 27
3 28 29 30
3 31 28 30
3 32 33 34
3 32 35 33
3 4 5 36
3 4 36 11
3 11 1 0
3 11 36 1
3 36 37 1
3 38 37 36
3 39 37 38
3 40 1 37
3 40 37 41
