ply
format ascii 1.0
comment Generated by the CGAL library
element vertex 100
property double x
property double y
property double z
element face 68
property list uchar int vertex_indices
end_header
-0.30366 -0.0800505 0.358871
-0.30366 -0.10712 0.325852
-0.331266 -0.0800505 0.331266
0.30366 -0.10712 0.325852
0.331266 -0.0800505 0.331266
0.331266 -0.0319796 0.0909107
0.30366 -0.0590489 0.0854968
0.331266 -0.0800505 0.331266
0.30366 -0.10712 0.325852
0.30366 -0.0800505 0.358871
0.30366 0.10712 0.331266
-0.30366 0.10712 -0.358871
-0.30366 0.10712 0.331266
0.30366 0.10712 -0.358871
-0.30366 0.0795145 0.358871
-0.30366 -0.0800505 0.358871
0.30366 -0.0800505 0.358871
0.30366 0.0795145 0.358871
-0.30366 -0.0590489 0.0854968
-0.30366 -0.0585129 0.0800829
0.30366 -0.0585129 0.0800829
0.30366 -0.0590489 0.0854968
-0.331266 -0.0309074 0.0800829
-0.30366 -0.0590489 0.0854968
-0.331266 -0.0319796 0.0909107
-0.30366 -0.0585129 0.0800829
0.331266 -0.0309074 0.0800829
0.331266 -0.0319796 0.0909107
0.30366 -0.0590489 0.0854968
0.30366 -0.0585129 0.0800829
-0.30366 -0.10712 0.325852
-0.331266 -0.0800505 0.331266
-0.331266 -0.0319796 0.0909107
-0.30366 -0.0590489 0.0854968
-0.331266 -0.0309074 0.0800829
-0.30366 -0.0585129 0.0800829
-0.30366 -0.0585129 -0.358871
-0.331266 -0.0309074 -0.358871
0.30366 -0.0585129 0.0800829
0.331266 -0.0309074 0.0800829
0.331266 -0.0309074 -0.358871
0.30366 -0.0585129 -0.358871
-0.30366 -0.0800505 0.358871
-0.30366 -0.10712 0.325852
0.30366 -0.10712 0.325852
0.30366 -0.0800505 0.358871
0.30366 0.10712 0.331266
-0.30366 0.10712 0.331266
0.30366 0.0795145 0.358871
-0.30366 0.0795145 0.358871
0.331266 0.0795145 0.331266
0.30366 0.10712 0.331266
0.30366 0.0795145 0.358871
-0.30366 0.10712 0.331266
-0.331266 0.0795145 0.331266
-0.30366 0.0795145 0.358871
0.331266 -0.0800505 0.331266
0.30366 -0.0800505 0.358871
0.30366 0.0795145 0.358871
0.331266 0.0795145 0.331266
-0.30366 -0.0800505 0.358871
-0.331266 -0.0800505 0.331266
-0.331266 0.0795145 0.331266
-0.30366 0.0795145 0.358871
-0.30366 0.10712 -0.358871
-0.331266 0.0795145 -0.358871
-0.331266 0.0795145 0.331266
-0.30366 0.10712 0.331266
0.331266 0.0795145 -0.358871
0.30366 0.10712 0.331266
0.331266 0.0795145 0.331266
0.30366 0.10712 -0.358871
-0.248449 0.051909 0.276055
-0.248449 -0.00330193 0.276055
0.248449 -0.00330193 0.276055
0.248449 0.051909 0.276055
0.248449 -0.00330193 -0.358871
-0.248449 -0.00330193 -0.358871
0.248449 0.051909 -0.358871
-0.248449 0.051909 -0.358871
0.331266 -0.0309074 0.0800829
0.331266 -0.0319796 0.0909107
0.331266 0.0795145 0.331266
0.331266 -0.0800505 0.331266
0.331266 0.0795145 -0.358871
0.331266 -0.0309074 -0.358871
-0.331266 -0.0309074 0.0800829
-0.331266 0.0795145 -0.358871
-0.331266 -0.0309074 -0.358871
-0.331266 -0.0319796 0.0909107
-0.331266 0.0795145 0.331266
-0.331266 -0.0800505 0.331266
-0.30366 -0.0585129 -0.358871
0.30366 -0.0585129 -0.358871
0.30366 -0.0585129 0.0800829
-0.30366 -0.0585129 0.0800829
-0.30366 -0.10712 0.325852
-0.30366 -0.0590489 0.0854968
0.30366 -0.0590489 0.0854968
0.30366 -0.10712 0.325852
3 0 1 2
3 3 4 5
3 3 5 6
3 7 8 9
3 10 11 12
3 10 13 11
3 14 15 16
3 14 16 17
3 18 19 20
3 18 20 21
3 22 23 24
3 22 25 23
3 26 27 28
3 29 26 28
3 30 31 32
3 33 30 32
3 34 35 36
3 34 36 37
3 38 39 40
3 38 40 41
3 42 43 44
3 45 42 44
3 46 47 48
3 47 49 48
3 50 51 52
3 53 54 55
3 56 57 58
3 59 56 58
3 60 61 62
3 63 60 62
3 64 65 66
3 64 66 67
3 68 69 70
3 68 71 69
3 74 73 72
3 75 74 72
3 76 77 74
3 77 73 74
3 76 74 75
3 78 76 75
3 79 78 75
3 72 79 75
3 72 73 77
3 72 77 79
3 82 81 80
3 83 81 82
3 84 82 80
3 85 84 80
3 86 87 88
3 86 89 90
3 90 89 91
3 87 86 90
3 79 87 11
3 88 77 92
3 78 11 13
3 85 93 76
3 85 76 78
3 79 11 78
3 88 87 79
3 77 88 79
3 76 92 77
3 76 93 92
3 84 85 78
3 13 84 78
3 94 95 93
3 95 92 93
3 96 97 98
3 99 96 98
