ply
format ascii 1.0
comment Generated by the CGAL library
element vertex 28
property double x
property double y
property double z
element face 56
property list uchar int vertex_indices
end_header
0.172465 0.188144 -0.423324
0.172465 -0.188144 -0.423324
0.172465 0.188144 0.250859
0.172465 -0.188144 0.250859
-0.172465 -0.188144 -0.423324
-0.172465 0.188144 0.250859
-0.172465 0.188144 -0.423324
-0.172465 -0.188144 0.250859
0.172465 0 0.407646
0.172465 0.188144 0.266538
0.172465 0.188144 0.407646
0.172465 0 0.266538
0.188144 0.188144 -0.423324
0.188144 -0.188144 -0.423324
0.188144 0 0.423324
-0.188144 0 0.423324
-0.188144 0 0.266538
-0.172465 0 0.266538
-0.172465 0 0.407646
0.188144 0 0.266538
-0.172465 0.188144 0.266538
-0.172465 0.188144 0.407646
0.188144 0.188144 0.423324
-0.188144 0.188144 0.423324
-0.188144 0.188144 -0.423324
-0.188144 -0.188144 0.266538
0.188144 -0.188144 0.266538
-0.188144 -0.188144 -0.423324
3 0 1 2
3 1 3 2
3 6 5 4
3 5 7 4
3 2 3 7
3 2 7 5
3 10 9 8
3 9 11 8
3 1 0 12
3 13 1 12
3 8 14 15
3 16 17 18
3 15 16 18
3 8 15 18
3 8 11 19
3 14 8 19
3 18 17 20
3 18 20 21
3 10 8 21
3 8 18 21
3 23 22 10
3 20 9 2
3 22 9 10
3 5 24 23
3 2 9 22
3 20 2 5
3 20 23 21
3 5 6 24
3 5 23 20
3 21 23 10
3 2 12 0
3 22 12 2
3 11 9 20
3 25 11 17
3 17 11 20
3 19 11 26
3 25 17 16
3 26 11 25
3 7 3 25
3 26 3 13
3 7 27 4
3 7 25 27
3 3 26 25
3 1 13 3
3 16 27 25
3 16 24 27
3 16 15 23
3 24 16 23
3 13 19 26
3 19 22 14
3 12 22 19
3 12 19 13
3 23 14 22
3 23 15 14
3 6 4 27
3 24 6 27
