ply
format ascii 1.0
comment Generated by the CGAL library
element vertex 36
property double x
property double y
property double z
element face 36
property list uchar int vertex_indices
end_header
0.00231399 0.118936 -0.118531
0.00231399 0.118936 -0.435634
-0.133367 0.00909853 -0.118531
-0.133367 0.00909853 -0.435634
-0.133367 0.00909853 -0.118531
-0.133367 0.00909853 -0.435634
-0.133367 -0.173748 -0.435634
-0.133367 -0.173748 -0.118531
0.130242 0.00909853 -0.435634
0.00231399 0.118936 -0.118531
0.130242 0.00909853 -0.118531
0.00231399 0.118936 -0.435634
0.130242 0.00909853 -0.118531
0.130242 0.00909853 -0.435634
0.130242 -0.173748 -0.435634
0.130242 -0.173748 -0.118531
0.00231399 0.118936 -0.435634
-0.173306 0.0483986 -0.118531
-0.173306 -0.173748 -0.118531
-0.173306 0.0483986 0.435634
-0.173306 -0.173748 0.435634
0.173306 0.00909853 0.435634
0.173306 0.00909853 -0.118531
0.173306 -0.173748 -0.118531
0.173306 -0.173748 0.435634
-0.0184624 0.173748 0.435634
0.173306 0.00909853 -0.118531
-0.0184624 0.173748 -0.118531
-0.0184624 0.173748 0.435634
-0.0184624 0.173748 -0.118531
-0.173306 0.0483986 0.435634
-0.173306 0.0483986 -0.118531
-0.0184624 0.173748 0.435634
-0.0184624 0.173748 -0.118531
0.00231399 0.118936 -0.118531
0.173306 0.00909853 0.435634
3 0 1 2
3 1 3 2
3 4 5 6
3 4 6 7
3 8 9 10
3 8 11 9
3 14 13 12
3 15 14 12
3 6 5 14
3 5 16 13
3 5 13 14
3 17 18 19
3 18 20 19
3 23 22 21
3 23 21 24
3 25 26 27
3 25 35 26
3 28 29 30
3 29 31 30
3 24 21 20
3 21 19 20
3 21 32 19
3 22 34 33
3 7 18 4
3 18 17 4
3 17 34 4
3 33 34 17
3 34 22 12
3 12 22 23
3 12 23 15
3 18 7 20
3 20 15 24
3 24 15 23
3 7 6 15
3 15 6 14
3 7 15 20
