ply
format ascii 1.0
comment Generated by the CGAL library
element vertex 16
property double x
property double y
property double z
element face 28
property list uchar int vertex_indices
end_header
-0.302283 -0.318477 0.215917
0.28609 -0.318477 -0.199723
0.28609 -0.318477 0.215917
-0.302283 -0.318477 -0.199723
0.28609 0.318477 -0.199723
0.28609 0.318477 0.215917
-0.302283 0.318477 0.215917
-0.302283 0.318477 -0.199723
0.302283 0.334671 0.215917
-0.302283 -0.334671 0.215917
0.302283 -0.334671 0.215917
-0.302283 0.334671 0.215917
0.302283 0.334671 -0.215917
-0.302283 0.334671 -0.215917
-0.302283 -0.334671 -0.215917
0.302283 -0.334671 -0.215917
3 0 1 2
3 0 3 1
3 2 1 4
3 2 4 5
3 6 5 4
3 6 4 7
3 8 2 5
3 9 2 10
3 6 11 5
3 11 8 5
3 8 10 2
3 2 9 0
3 8 11 12
3 11 13 12
3 15 12 14
3 12 13 14
3 12 10 8
3 12 15 10
3 15 9 10
3 15 14 9
3 3 0 9
3 13 7 14
3 14 3 9
3 11 6 7
3 14 7 3
3 13 11 7
3 1 3 4
3 3 7 4
