ply
format ascii 1.0
comment Generated by the CGAL library
element vertex 16
property double x
property double y
property double z
element face 28
property list uchar int vertex_indices
end_header
-0.136083 -0.340207 -0.204124
-0.136083 0.204124 -0.204124
0.136083 0.204124 -0.204124
0.136083 -0.340207 -0.204124
0.136083 0.204124 0.0680414
0.136083 0.340207 -0.340207
0.136083 0.340207 0.340207
0.136083 -0.204124 0.340207
0.136083 -0.204124 0.0680414
0.136083 -0.340207 -0.340207
-0.136083 0.204124 0.0680414
-0.136083 -0.340207 -0.340207
-0.136083 0.340207 -0.340207
-0.136083 0.340207 0.340207
-0.136083 -0.204124 0.340207
-0.136083 -0.204124 0.0680414
3 0 1 2
3 0 2 3
3 6 5 4
3 4 7 6
3 8 7 4
3 4 5 2
3 9 3 2
3 9 2 5
3 4 2 10
3 2 1 10
3 9 0 3
3 9 11 0
3 11 9 5
3 12 11 5
3 12 5 6
3 13 12 6
3 6 7 14
3 13 6 14
3 14 7 8
3 15 14 8
3 15 8 4
3 10 15 4
3 1 0 11
3 13 10 12
3 12 1 11
3 14 15 10
3 12 10 1
3 13 14 10
