ply
format ascii 1.0
comment Generated by the CGAL library
element vertex 24
property double x
property double y
property double z
element face 44
property list uchar int vertex_indices
end_header
0.409621 0.125162 -0.201707
0.409621 0.125162 0.201707
0.409621 0.203776 0.201707
0.409621 0.203776 -0.201707
0.409621 -0.123093 0.201707
0.409621 -0.203776 -0.201707
0.409621 -0.203776 0.201707
0.409621 -0.123093 -0.201707
-0.388933 0.125162 -0.201707
-0.409621 0.125162 -0.201707
-0.388933 0.125162 0.201707
-0.409621 0.125162 0.201707
-0.409621 -0.125162 -0.201707
-0.409621 -0.125162 0.201707
-0.388933 -0.125162 0.201707
-0.388933 -0.125162 -0.201707
0.391002 0.125162 -0.201707
0.391002 0.125162 0.201707
0.391002 -0.123093 -0.201707
0.391002 -0.123093 0.201707
-0.409621 0.203776 0.201707
-0.409621 -0.203776 0.201707
-0.409621 -0.203776 -0.201707
-0.409621 0.203776 -0.201707
3 0 1 2
3 3 0 2
3 4 5 6
3 4 7 5
3 8 9 10
3 9 11 10
3 14 13 12
3 14 12 15
3 15 8 10
3 14 15 10
3 1 0 16
3 1 16 17
3 4 18 7
3 4 19 18
3 17 16 18
3 19 17 18
3 20 2 10
3 2 17 10
3 20 10 11
3 14 6 21
3 14 21 13
3 4 6 19
3 10 19 14
3 19 6 14
3 1 17 2
3 17 19 10
3 21 6 5
3 22 21 5
3 9 20 11
3 9 23 20
3 3 2 20
3 23 3 20
3 12 13 22
3 13 21 22
3 8 3 23
3 8 16 3
3 9 8 23
3 22 5 15
3 12 22 15
3 18 5 7
3 15 18 8
3 15 5 18
3 3 16 0
3 8 18 16
