ply
format ascii 1.0
comment Generated by the CGAL library
element vertex 16
property double x
property double y
property double z
element face 28
property list uchar int vertex_indices
end_header
-0.469509 0.098597 -0.140853
-0.469509 -0.0285462 -0.140853
0.469509 -0.0285462 -0.140853
0.469509 0.098597 -0.140853
-0.469509 0.098597 0.140853
0.469509 0.098597 0.140853
-0.469509 -0.0285462 0.0269498
0.469509 -0.0285462 0.0269498
0.469509 -0.0117377 0.140853
-0.469509 -0.0117377 0.140853
0.469509 -0.0117377 0.0879861
-0.469509 -0.0117377 0.0879861
0.469509 -0.098597 0.0879861
-0.469509 -0.098597 0.0879861
0.469509 -0.098597 0.0269498
-0.469509 -0.098597 0.0269498
3 0 1 2
3 0 2 3
3 4 3 5
3 4 0 3
3 7 2 6
3 2 1 6
3 8 4 5
3 8 9 4
3 10 9 8
3 10 11 9
3 12 11 10
3 12 13 11
3 14 13 12
3 14 15 13
3 7 6 14
3 6 15 14
3 4 6 0
3 9 11 4
3 6 1 0
3 13 6 11
3 15 6 13
3 6 4 11
3 3 2 7
3 10 5 7
3 14 12 7
3 12 10 7
3 10 8 5
3 7 5 3
