ply
format ascii 1.0
comment Generated by the CGAL library
element vertex 40
property double x
property double y
property double z
element face 28
property list uchar int vertex_indices
end_header
-0.284871 0.256629 0.296137
-0.256629 0.284871 0.296137
-0.225589 0.253831 -0.296137
-0.253831 0.225589 -0.296137
-0.225589 -0.253831 -0.296137
-0.284871 -0.256629 0.296137
-0.253831 -0.225589 -0.296137
-0.256629 -0.284871 0.296137
-0.284871 -0.256629 0.296137
-0.253831 0.225589 -0.296137
-0.253831 -0.225589 -0.296137
-0.284871 0.256629 0.296137
-0.225589 -0.253831 -0.296137
-0.256629 -0.284871 0.296137
0.225589 -0.253831 -0.296137
0.256629 -0.284871 0.296137
0.225589 -0.253831 -0.296137
0.256629 -0.284871 0.296137
0.284871 -0.256629 0.296137
0.253831 -0.225589 -0.296137
0.284871 0.256629 0.296137
0.256629 0.284871 0.296137
0.225589 0.253831 -0.296137
0.253831 0.225589 -0.296137
-0.225589 0.253831 -0.296137
-0.256629 0.284871 0.296137
0.225589 0.253831 -0.296137
0.256629 0.284871 0.296137
-0.256629 0.284871 0.296137
-0.256629 -0.284871 0.296137
0.256629 -0.284871 0.296137
0.256629 0.284871 0.296137
0.284871 -0.256629 0.296137
0.284871 0.256629 0.296137
0.253831 -0.225589 -0.296137
0.253831 0.225589 -0.296137
-0.225589 -0.253831 -0.296137
0.225589 -0.253831 -0.296137
-0.225589 0.253831 -0.296137
0.225589 0.253831 -0.296137
3 0 1 2
3 3 0 2
3 4 5 6
3 4 7 5
3 8 9 10
3 8 11 9
3 12 13 14
3 13 15 14
3 16 17 18
3 19 16 18
3 20 21 22
3 20 22 23
3 24 25 26
3 25 27 26
3 28 11 29
3 28 30 31
3 31 32 33
3 31 30 32
3 28 29 30
3 11 8 29
3 35 32 34
3 35 33 32
3 10 9 36
3 36 38 37
3 9 38 36
3 39 35 34
3 37 39 34
3 37 38 39
