ply
format ascii 1.0
comment Generated by the CGAL library
element vertex 40
property double x
property double y
property double z
element face 44
property list uchar int vertex_indices
end_header
-0.377992 -0.236245 0.226518
-0.377992 0.236245 -0.226518
-0.377992 0.236245 0.226518
-0.377992 -0.236245 -0.226518
0.377992 -0.236245 -0.226518
0.377992 -0.236245 0.226518
0.332688 -0.190941 0.226518
-0.332688 -0.190941 0.226518
0.377992 0.236245 0.226518
0.332688 0.190941 0.226518
-0.332688 0.190941 0.226518
0.0700352 -0.0632945 -0.181215
-0.332688 -0.190941 -0.181215
0.332688 -0.190941 -0.181215
0.101546 -0.0307451 -0.181215
-0.332688 0.190941 -0.181215
-0.0823758 0.0842548 -0.181215
0.332688 0.190941 -0.181215
-0.0508647 0.116804 -0.181215
0.377992 0.236245 -0.226518
-0.0508647 0.116804 0.226518
-0.0823758 0.0842548 0.226518
0.101546 -0.0307451 0.226518
0.0700352 -0.0632945 0.226518
0.101546 -0.0307451 -0.181215
-0.0508647 0.116804 -0.181215
-0.0508647 0.116804 0.226518
0.101546 -0.0307451 0.226518
0.0700352 -0.0632945 -0.181215
-0.0823758 0.0842548 -0.181215
0.0700352 -0.0632945 0.226518
-0.0508647 0.116804 -0.181215
-0.0823758 0.0842548 -0.181215
-0.0823758 0.0842548 0.226518
-0.0508647 0.116804 0.226518
0.101546 -0.0307451 -0.181215
0.0700352 -0.0632945 -0.181215
0.0700352 -0.0632945 0.226518
0.101546 -0.0307451 0.226518
-0.0823758 0.0842548 0.226518
3 0 1 2
3 0 3 1
3 4 3 0
3 5 4 0
3 5 0 6
3 0 7 6
3 7 0 2
3 5 9 8
3 7 2 10
3 6 9 5
3 9 2 8
3 10 2 9
3 13 12 11
3 13 11 14
3 16 12 15
3 13 14 17
3 11 12 16
3 17 14 18
3 17 18 15
3 18 16 15
3 1 3 4
3 1 4 19
3 2 1 19
3 2 19 8
3 5 19 4
3 5 8 19
3 12 10 15
3 12 7 10
3 6 7 13
3 7 12 13
3 17 9 13
3 9 6 13
3 17 10 9
3 17 15 10
3 20 21 22
3 21 23 22
3 24 25 26
3 24 26 27
3 28 29 39
3 30 28 39
3 31 32 33
3 34 31 33
3 35 36 37
3 35 37 38
