ply
format ascii 1.0
comment Generated by the CGAL library
element vertex 16
property double x
property double y
property double z
element face 28
property list uchar int vertex_indices
end_header
-0.07698 0.481125 -0.096225
-0.07698 0.481125 0.07698
-0.07698 -0.481125 0.07698
-0.07698 -0.481125 -0.096225
-0.096225 -0.481125 -0.096225
0.096225 -0.481125 0.096225
0.07698 -0.481125 0.07698
-0.096225 -0.481125 0.096225
0.096225 -0.481125 -0.096225
0.07698 -0.481125 -0.096225
-0.096225 0.481125 -0.096225
0.07698 0.481125 0.07698
0.07698 0.481125 -0.096225
0.096225 0.481125 -0.096225
0.096225 0.481125 0.096225
-0.096225 0.481125 0.096225
3 0 1 2
3 0 2 3
3 4 3 2
3 7 6 5
3 4 2 7
3 6 9 8
3 2 6 7
3 6 8 5
3 0 3 4
3 10 0 4
3 2 1 11
3 2 11 6
3 12 9 6
3 12 6 11
3 8 9 13
3 9 12 13
3 5 8 13
3 5 13 14
3 15 7 14
3 7 5 14
3 10 4 7
3 10 7 15
3 1 0 10
3 14 11 15
3 15 1 10
3 13 12 11
3 15 11 1
3 14 13 11
