ply
format ascii 1.0
comment Generated by the CGAL library
element vertex 30
property double x
property double y
property double z
element face 26
property list uchar int vertex_indices
end_header
0.35019 -0.262643 -0.241631
-0.35019 0.262643 -0.241631
-0.35019 -0.262643 -0.241631
0.35019 0.262643 -0.241631
-0.35019 0.262643 0.241631
0.35019 0.262643 0.241631
0.238129 0.0945514 0.241631
-0.238129 0.0945514 0.241631
0.0887149 -0.12957 0.241631
-0.0887149 -0.12957 0.241631
0 -0.262643 0.241631
0.334559 0.0945514 0.108559
0.35019 0.262643 0.241631
0.238129 0.0945514 0.241631
0.35019 -0.262643 -0.241631
0.185144 -0.12957 0.108559
0.0887149 -0.12957 0.241631
2.26025e-09 -0.262643 0.241631
-2.26025e-09 -0.262643 0.241631
-0.35019 -0.262643 -0.241631
-0.185144 -0.12957 0.108559
-0.0887149 -0.12957 0.241631
-0.334559 0.0945514 0.108559
-0.35019 0.262643 0.241631
-0.238129 0.0945514 0.241631
0.185144 -0.12957 0.108559
0.334559 0.0945514 0.108559
-0.334559 0.0945514 0.108559
-0.185144 -0.12957 0.108559
0 -0.262643 0.241631
3 0 1 2
3 0 3 1
3 1 3 4
3 3 5 4
3 5 3 0
3 6 4 5
3 6 7 4
3 10 9 8
3 2 29 0
3 11 12 13
3 14 12 11
3 15 14 11
3 16 17 15
3 17 14 15
3 18 19 20
3 18 20 21
3 20 19 22
3 22 19 23
3 24 22 23
3 27 26 25
3 28 27 25
3 27 7 6
3 26 27 6
3 8 9 28
3 8 28 25
3 2 1 4
