ply
format ascii 1.0
comment Generated by the CGAL library
element vertex 16
property double x
property double y
property double z
element face 28
property list uchar int vertex_indices
end_header
-0.247226 -0.185419 0.370839
-0.247226 -0.185419 -0.370839
-0.247226 -0.226624 -0.370839
-0.247226 -0.226624 0.370839
0.247226 -0.226624 -0.370839
0.247226 -0.185419 -0.370839
0.206021 -0.185419 0.329634
0.247226 -0.185419 0.370839
0.206021 -0.185419 -0.329634
-0.206021 -0.185419 0.329634
-0.206021 -0.185419 -0.329634
0.247226 -0.226624 0.370839
0.206021 0.226624 0.329634
0.206021 0.226624 -0.329634
-0.206021 0.226624 -0.329634
-0.206021 0.226624 0.329634
3 0 1 2
3 3 0 2
3 4 2 1
3 4 1 5
3 6 0 7
3 8 6 7
3 5 8 7
3 9 0 6
3 1 8 5
3 1 10 8
3 1 0 9
3 10 1 9
3 0 3 11
3 7 0 11
3 11 4 7
3 4 5 7
3 11 3 2
3 11 2 4
3 12 6 8
3 13 12 8
3 14 8 10
3 14 13 8
3 10 9 15
3 10 15 14
3 9 6 15
3 6 12 15
3 12 13 14
3 12 14 15
