ply
format ascii 1.0
comment Generated by the CGAL library
element vertex 42
property double x
property double y
property double z
element face 72
property list uchar int vertex_indices
end_header
-0.284914 0.20159 -0.211264
-0.284914 0.20159 -0.184386
-0.284914 -0.20159 -0.184386
-0.284914 -0.20159 -0.211264
-0.00268787 0.20159 -0.211264
-0.00268787 0.20159 -0.184386
-0.00268787 -0.20159 -0.184386
-0.00268787 -0.20159 -0.211264
0.405868 -0.20159 -0.211264
0.405868 0.20159 -0.211264
-0.405868 -0.20159 -0.211264
-0.37227 -0.20159 -0.184386
-0.37227 -0.20159 -0.161539
-0.405868 -0.20159 -0.0634315
0.309105 -0.20159 -0.184386
0.309105 -0.20159 -0.161539
0.405868 -0.20159 -0.0634315
0.37227 -0.20159 -0.161539
0.37227 -0.20159 -0.184386
-0.309105 -0.20159 -0.184386
-0.309105 -0.20159 -0.161539
-0.405868 0.20159 -0.211264
-0.405868 0.20159 0.211264
-0.405868 0.0661415 -0.160878
0.405868 0.0661415 -0.160878
0.405868 0.20159 0.211264
0.37227 0.20159 -0.184386
0.37227 0.20159 -0.161539
0.405868 0.20159 0.211264
0.309105 0.20159 -0.161539
0.309105 0.20159 -0.184386
-0.37227 0.20159 -0.184386
-0.405868 0.20159 0.211264
-0.309105 0.20159 -0.161539
-0.37227 0.20159 -0.161539
-0.309105 0.20159 -0.184386
-0.405868 -0.20159 -0.0634315
0.405868 -0.20159 -0.0634315
-0.405868 0.0661415 -0.160878
0.405868 0.0661415 -0.160878
-0.405868 0.0661415 -0.160878
0.405868 0.0661415 -0.160878
3 0 1 2
3 3 0 2
3 6 5 4
3 7 6 4
3 2 1 5
3 2 5 6
3 8 7 4
3 8 4 9
3 10 3 11
3 12 13 10
3 6 14 15
3 16 15 17
3 8 18 14
3 3 19 11
3 15 16 6
3 20 19 2
3 2 19 3
3 12 10 11
3 20 13 12
3 20 2 6
3 6 16 13
3 17 18 8
3 16 17 8
3 8 14 7
3 20 6 13
3 7 14 6
3 0 3 10
3 21 0 10
3 22 23 24
3 25 22 24
3 27 9 26
3 29 28 27
3 5 30 4
3 21 31 0
3 29 5 28
3 33 32 5
3 34 21 32
3 5 32 28
3 0 35 1
3 0 31 35
3 5 1 33
3 1 35 33
3 30 5 29
3 4 30 9
3 9 30 26
3 28 9 27
3 32 33 34
3 21 34 31
3 36 37 38
3 37 39 38
3 21 10 40
3 10 13 40
3 21 40 32
3 41 8 9
3 41 16 8
3 28 41 9
3 20 12 33
3 12 34 33
3 19 35 11
3 35 31 11
3 31 34 12
3 11 31 12
3 35 19 20
3 35 20 33
3 17 15 27
3 15 29 27
3 26 14 18
3 26 30 14
3 15 14 30
3 15 30 29
3 17 27 26
3 17 26 18
