ply
format ascii 1.0
comment Generated by the CGAL library
element vertex 28
property double x
property double y
property double z
element face 52
property list uchar int vertex_indices
end_header
-0.325472 0.0650945 0.0650945
-0.325472 0.0650945 0.195283
-0.260378 0.0650945 0.195283
-0.260378 0.0650945 0.0650945
-0.260378 0.195283 0.0650945
-0.325472 0.195283 0.0650945
-0.325472 0.195283 -0.0650945
-0.260378 0.195283 -0.0650945
-0.260378 0.325472 -0.0650945
-0.325472 0.325472 -0.0650945
-0.325472 0.325472 -0.195283
-0.260378 0.325472 -0.195283
-0.260378 -0.260378 -0.195283
0.325472 -0.325472 -0.195283
0.325472 -0.260378 -0.195283
-0.325472 -0.325472 -0.195283
0.195283 -0.325472 -0.0650945
0.325472 -0.325472 -0.0650945
0.195283 -0.325472 0.0650945
0.0650945 -0.325472 0.0650945
0.0650945 -0.325472 0.195283
-0.325472 -0.325472 0.195283
-0.260378 -0.260378 0.195283
0.0650945 -0.260378 0.195283
0.195283 -0.260378 -0.0650945
0.325472 -0.260378 -0.0650945
0.195283 -0.260378 0.0650945
0.0650945 -0.260378 0.0650945
3 0 1 2
3 3 0 2
3 4 0 3
3 4 5 0
3 6 4 7
3 6 5 4
3 8 6 7
3 8 9 6
3 10 8 11
3 10 9 8
3 12 10 11
3 12 14 13
3 12 13 15
3 12 15 10
3 16 13 17
3 18 19 16
3 16 15 13
3 19 15 16
3 20 21 19
3 21 15 19
3 22 20 23
3 2 1 22
3 22 21 20
3 1 21 22
3 3 7 4
3 7 11 8
3 7 3 12
3 7 12 11
3 3 2 22
3 12 3 22
3 21 1 0
3 15 6 10
3 21 0 15
3 15 0 6
3 0 5 6
3 10 6 9
3 25 14 24
3 24 27 26
3 14 12 24
3 24 12 27
3 27 22 23
3 27 12 22
3 23 20 19
3 23 19 27
3 19 18 27
3 18 26 27
3 26 18 16
3 26 16 24
3 16 17 24
3 17 25 24
3 25 17 13
3 14 25 13
