ply
format ascii 1.0
comment Generated by the CGAL library
element vertex 34
property double x
property double y
property double z
element face 52
property list uchar int vertex_indices
end_header
-0.192305 0.268095 0.204622
0.291347 0.268095 -0.204622
0.291347 0.268095 0.204622
-0.192305 0.268095 -0.204622
-0.192305 -0.0109356 -0.204622
-0.192305 -0.0109356 0.204622
0.291347 -0.0109356 -0.204622
0.291347 -0.0109356 0.204622
0.347153 -0.0388387 0.204622
0.347153 0.295998 0.204622
-0.266713 0.295998 0.204622
0.0495209 -0.0388387 0.204622
0.0123169 -0.215558 0.204622
0.0495209 -0.215558 0.204622
-0.266713 -0.215558 0.204622
-0.347153 -0.295998 0.204622
0.0927567 -0.295998 0.204622
0.347153 -0.0388387 -0.204622
0.0123169 -0.215558 -0.204622
-0.347153 -0.295998 -0.204622
0.0927567 -0.295998 -0.204622
0.347153 0.295998 -0.204622
-0.266713 0.295998 -0.204622
0.0495209 -0.0388387 -0.204622
0.0495209 -0.215558 -0.204622
-0.266713 -0.215558 -0.204622
-0.347153 -0.295998 0.204622
-0.266713 -0.215558 0.204622
-0.266713 -0.215558 -0.204622
-0.347153 -0.295998 -0.204622
0.0927567 -0.295998 -0.204622
0.0123169 -0.215558 -0.204622
0.0123169 -0.215558 0.204622
0.0927567 -0.295998 0.204622
3 0 1 2
3 0 3 1
3 4 3 0
3 5 4 0
3 2 1 6
3 2 6 7
3 8 2 7
3 0 2 9
3 0 10 5
3 11 12 13
3 14 12 5
3 15 16 12
3 8 9 2
3 5 11 7
3 5 12 11
3 9 10 0
3 11 8 7
3 15 12 14
3 10 14 5
3 6 1 17
3 20 19 18
3 17 1 21
3 4 22 3
3 24 18 23
3 18 19 25
3 21 1 3
3 18 4 23
3 23 4 6
3 6 17 23
3 22 21 3
3 18 25 4
3 4 25 22
3 26 27 28
3 26 28 29
3 22 14 10
3 22 25 14
3 9 21 10
3 21 22 10
3 8 17 9
3 17 21 9
3 11 23 8
3 23 17 8
3 13 24 11
3 24 23 11
3 12 18 13
3 18 24 13
3 30 31 32
3 33 30 32
3 15 20 16
3 15 19 20
3 6 4 5
3 7 6 5
