ply
format ascii 1.0
comment Generated by the CGAL library
element vertex 16
property double x
property double y
property double z
element face 28
property list uchar int vertex_indices
end_header
0.308351 0.306705 0.246681
-0.308351 0.306705 0.246681
0.308351 -0.306705 0.246681
-0.308351 -0.306705 0.246681
0.308351 0.306705 -0.246681
-0.308351 0.306705 -0.246681
0.308351 -0.306705 -0.246681
-0.308351 -0.306705 -0.246681
0.122469 -0.306705 -0.0403536
-0.308351 -0.306705 -0.0403536
0.122469 -0.306705 0.116781
-0.308351 -0.306705 0.116781
-0.308351 -0.00176705 0.116781
-0.308351 -0.00176705 -0.0403536
0.122469 -0.00176705 0.116781
0.122469 -0.00176705 -0.0403536
3 0 1 2
3 1 3 2
3 6 5 4
3 6 7 5
3 8 7 6
3 8 9 7
3 2 8 6
3 2 10 8
3 2 3 10
3 10 3 11
3 11 3 12
3 12 1 13
3 3 1 12
3 13 1 5
3 9 13 7
3 7 13 5
3 4 2 6
3 4 0 2
3 4 1 0
3 4 5 1
3 14 10 12
3 10 11 12
3 9 8 13
3 8 15 13
3 15 8 10
3 15 10 14
3 12 13 15
3 12 15 14
